<svg width="0" height="0" class="hidden">
	<symbol fill="none"
		xmlns="http://www.w3.org/2000/svg" viewBox="0 0 96 32" id="google">
		<path d="M23.6269 11.1256H12.4352V14.4256H20.3938C19.9959 19.0756 16.1161 21.1256 12.485 21.1256C7.80933 21.1256 3.73057 17.4256 3.73057 12.2756C3.73057 7.22559 7.61036 3.32559 12.485 3.32559C16.2653 3.32559 18.4539 5.72559 18.4539 5.72559L20.742 3.32559C20.742 3.32559 17.7575 0.0255868 12.3358 0.0255868C5.42176 -0.0244132 0.0994835 5.82559 0.0994835 12.1756C0.0994835 18.3756 5.12332 24.4256 12.5347 24.4256C19.0508 24.4256 23.8259 19.9756 23.8259 13.3256C23.8259 11.9256 23.6269 11.1256 23.6269 11.1256Z" fill="white"></path>
		<path fill-rule="evenodd" clip-rule="evenodd" d="M24.8705 16.4755C24.8705 12.2755 28.1534 8.67554 32.7295 8.67554C36.5098 8.67554 40.5886 11.3755 40.6383 16.5755C40.6383 21.1755 37.1565 24.4255 32.829 24.4255C28.0539 24.4255 24.8705 20.7755 24.8705 16.4755ZM37.1565 16.5755C37.1565 13.6755 35.0176 11.8255 32.7793 11.8255C30.2425 11.8255 28.3026 13.8255 28.3523 16.5255C28.3523 19.3255 30.2922 21.3255 32.7793 21.3255C35.0674 21.3255 37.1565 19.4755 37.1565 16.5755Z" fill="white"></path>
		<path fill-rule="evenodd" clip-rule="evenodd" d="M41.9813 16.4755C41.9813 12.2755 45.2642 8.67554 49.8404 8.67554C53.6207 8.67554 57.6995 11.3755 57.7492 16.5755C57.7492 21.1755 54.2674 24.4255 49.9399 24.4255C45.1648 24.4255 41.9813 20.7755 41.9813 16.4755ZM54.2674 16.5755C54.2674 13.6755 52.1285 11.8255 49.8902 11.8255C47.3534 11.8255 45.4135 13.8255 45.4632 16.5255C45.4632 19.3255 47.4031 21.3255 49.8902 21.3255C52.1782 21.3255 54.2674 19.4755 54.2674 16.5755Z" fill="white"></path>
		<path fill-rule="evenodd" clip-rule="evenodd" d="M59.0922 16.5756C59.0922 12.4256 62.3751 8.72559 66.6031 8.72559C68.4435 8.72559 69.8363 9.42559 70.7316 10.5256V9.17559H74.0145V23.3256C74.0145 28.8756 70.8311 31.5256 66.6528 31.5256C62.8228 31.5256 60.6839 29.1756 59.6394 26.9256L62.6736 25.6756C63.1212 26.6756 64.315 28.4756 66.7026 28.4756C69.1896 28.4756 70.8311 26.8256 70.8311 24.1256V22.5756C69.886 23.6256 68.742 24.4756 66.5036 24.4756C62.9223 24.4756 59.0922 21.2756 59.0922 16.5756ZM71.0798 16.6256C71.0798 13.6256 68.9409 11.8256 66.9016 11.8256C64.7129 11.8256 62.5741 13.5756 62.5243 16.6756C62.5243 19.5256 64.6135 21.3756 66.8518 21.3756C68.9907 21.3756 71.0798 19.7256 71.0798 16.6256Z" fill="white"></path>
		<path fill-rule="evenodd" clip-rule="evenodd" d="M81.4259 16.5255C81.4259 11.8255 84.7585 8.67554 88.7378 8.67554C91.8218 8.67554 94.1596 10.7755 95.2041 13.1755L95.7513 14.4755L85.256 18.8755C85.9026 20.0755 86.8974 21.2755 89.086 21.2755C91.0259 21.2755 92.2197 20.2255 92.9161 19.1255L95.6518 20.9755C94.458 22.5755 92.3689 24.4255 89.086 24.4255C85.1565 24.4255 81.4259 21.4755 81.4259 16.5255ZM91.772 13.4255C91.2746 12.4755 90.2798 11.7255 88.8373 11.7255C86.599 11.7255 84.4104 14.0755 84.8083 16.3755L91.772 13.4255Z" fill="white"></path>
		<path d="M76.4518 23.9756H79.8839V0.775635H76.4518V23.9756Z" fill="white"></path>
	</symbol>
	<symbol fill="none"
		xmlns="http://www.w3.org/2000/svg" viewBox="0 0 96 26" id="netflix">
		<path fill-rule="evenodd" clip-rule="evenodd" d="M10.7599 24.3497H10.7599L10.7597 24.3497L10.7596 24.3497C10.2071 24.4064 9.64628 24.4638 9.072 24.5345L4.464 11.2036V25.1018C3.024 25.2436 1.728 25.4327 0.335999 25.6691V0.189087H4.176L9.408 14.6545V0.189087H13.488V24.0145C12.5865 24.1625 11.685 24.2549 10.7599 24.3497ZM24.2917 9.50013L24.2919 9.50012L24.292 9.50012C25.2457 9.47706 26.1772 9.45454 26.88 9.45454V13.4255C25.104 13.4255 22.992 13.4255 21.456 13.52V19.4291C22.2039 19.384 22.9567 19.3341 23.7128 19.284L23.7128 19.284L23.7129 19.284L23.713 19.284H23.7131H23.7131H23.7131H23.7131H23.7131H23.7132H23.7132C25.3346 19.1766 26.9713 19.0681 28.608 19.0036V22.8327L17.424 23.6836V0.189087H28.608V4.16H21.456V9.54909C22.2668 9.54909 23.2914 9.52431 24.2915 9.50013L24.2916 9.50013H24.2917H24.2917ZM39.408 4.20727H43.584C43.584 4.20727 43.584 0.189087 43.632 0.189087H31.2V4.20727H35.376V22.5491C36.672 22.5018 38.064 22.5018 39.408 22.5018V4.20727ZM50.16 9.26545H55.68V13.2364H50.16V22.2655H46.176V0.189087H57.456V4.16H50.16V9.26545ZM68.2178 18.9573C66.8297 18.8769 65.4308 18.796 64.032 18.7673V0.189087H60V22.5018C63.696 22.5964 67.296 22.7854 70.896 23.0218V19.0982C70.0097 19.061 69.116 19.0093 68.2178 18.9573ZM75.6664 23.3926L75.6665 23.3926C76.5314 23.4441 77.4097 23.4964 78.288 23.5891V0.189087H74.304V23.3055C74.753 23.3382 75.2078 23.3653 75.6664 23.3926ZM90.816 12.2909L95.952 0.189087H91.488L88.656 6.85454L86.016 0.189087H81.696L86.4 12.1491L81.216 23.7782C81.792 23.8538 82.368 23.9143 82.944 23.9748C83.808 24.0656 84.672 24.1564 85.536 24.2982L88.512 17.5382L91.392 24.9127C91.9299 24.9955 92.4619 25.0841 92.9922 25.1724C93.9761 25.3362 94.9539 25.4989 95.952 25.6218L90.816 12.2909Z" fill="white"></path>
	</symbol>
	<symbol fill="none"
		xmlns="http://www.w3.org/2000/svg" viewBox="0 0 110 32" id="slack">
		<path d="M19.7015 3.19998C19.2636 1.7655 17.7313 0.993084 16.3084 1.43446C14.8855 1.87584 14.1194 3.42067 14.5572 4.85515L21.5622 26.5931C22.0547 27.9172 23.4776 28.6896 24.8457 28.3034C26.2686 27.862 27.1442 26.3724 26.7064 24.9379C26.7064 24.8827 19.7015 3.19998 19.7015 3.19998Z" fill="white"></path>
		<path d="M8.86564 6.78616C8.42783 5.35168 6.89549 4.57927 5.47261 5.02065C4.04972 5.46202 3.28355 7.00685 3.72136 8.44133L10.7263 30.1793C11.2189 31.5034 12.6418 32.2758 14.0099 31.8896C15.4328 31.4482 16.3084 29.9586 15.8706 28.5241C15.8706 28.4689 8.86564 6.78616 8.86564 6.78616Z" fill="white"></path>
		<path d="M28.5672 21.2414C29.9901 20.8 30.7562 19.2552 30.3184 17.8207C29.8806 16.3862 28.3483 15.6138 26.9254 16.0552L5.30846 23.0621C3.99503 23.5586 3.22886 24.9931 3.61194 26.3724C4.04975 27.8069 5.52736 28.6897 6.95025 28.2483C7.0597 28.2483 28.5672 21.2414 28.5672 21.2414Z" fill="white"></path>
		<path d="M9.796 27.3655C11.2189 26.9242 13.0249 26.3173 14.9403 25.6552C14.5025 24.2207 13.9005 22.4 13.2438 20.469L8.09949 22.1793L9.796 27.3655Z" fill="white"></path>
		<path d="M20.6866 23.7792C22.6567 23.1172 24.4627 22.5654 25.8308 22.0689C25.393 20.6344 24.791 18.8137 24.1343 16.8827L18.9901 18.593L20.6866 23.7792Z" fill="white"></path>
		<path d="M25.0099 10.262C26.4328 9.82065 27.199 8.27582 26.7612 6.84134C26.3234 5.40686 24.791 4.63444 23.3681 5.07582L1.80596 12.1379C0.492524 12.6344 -0.273645 14.0689 0.10944 15.4482C0.547251 16.9379 2.02486 17.8206 3.44775 17.3241C3.50247 17.3241 25.0099 10.262 25.0099 10.262Z" fill="white"></path>
		<path d="M6.2935 16.3862C7.71639 15.9448 9.52236 15.3379 11.4378 14.6758C10.7811 12.6896 10.2338 10.8689 9.74126 9.48962L4.59698 11.2L6.2935 16.3862Z" fill="white"></path>
		<path d="M17.1293 12.8552C19.0995 12.1931 20.9054 11.6414 22.2736 11.1448C21.6169 9.15862 21.0696 7.33793 20.5771 5.95862L15.4328 7.66896L17.1293 12.8552Z" fill="white"></path>
		<path d="M50.403 8.9379C51.3333 9.37928 51.4428 9.65514 50.6766 11.0896C49.9104 12.5793 49.7463 12.6345 48.7612 12.2482C47.5572 11.7517 46.0796 11.3655 45.0945 11.3655C43.5075 11.3655 42.4677 11.9172 42.4677 12.8C42.4677 15.6689 51.607 14.1241 51.607 20.3034C51.607 23.3931 48.9801 25.4345 45.0398 25.4345C42.9602 25.4345 40.3881 24.7172 38.6368 23.8345C37.7612 23.3931 37.7065 23.1172 38.4726 21.6276C39.1293 20.3586 39.3483 20.1931 40.2786 20.5793C41.8109 21.2413 43.6716 21.7379 44.9851 21.7379C46.4627 21.7379 47.393 21.131 47.393 20.2482C47.393 17.4345 38.0895 18.7586 38.0895 12.8C38.0895 9.65514 40.7164 7.50342 44.602 7.50342C46.4627 7.66894 48.8159 8.22066 50.403 8.9379Z" fill="white"></path>
		<path d="M57.791 1.65517V24.6069C57.791 24.9379 57.408 25.3241 56.9154 25.3241H54.5075C53.9602 25.3241 53.6318 24.9379 53.6318 24.6069V1.65517C53.6318 0.496553 53.9602 0.441381 55.7114 0.441381C57.6816 0.386208 57.791 0.551726 57.791 1.65517Z" fill="white"></path>
		<path fill-rule="evenodd" clip-rule="evenodd" d="M74.7562 24.3862V14.5103C74.7562 10.2069 71.8557 7.66895 67.2587 7.66895C65.1791 7.66895 62.8806 8.33101 61.2388 9.43446C60.3632 9.98619 60.3632 10.262 61.2388 11.6414C62.1691 13.0207 62.3333 13.0758 63.2089 12.5793C64.3035 11.9172 65.6716 11.4758 66.8209 11.4758C69.2288 11.4758 70.6517 12.5793 70.6517 14.4V15.5586C69.5025 15.062 68.0796 14.7862 66.5472 14.7862C62.4428 14.7862 59.7612 16.9931 59.7612 20.3034C59.7612 23.3931 62.1691 25.4896 65.7263 25.4896C67.587 25.4896 69.4477 24.7172 70.7064 23.2827L70.6517 24.331C70.597 24.8827 70.9801 25.2689 71.5273 25.2689H73.8806C74.3731 25.2689 74.7562 24.9379 74.7562 24.3862ZM66.2189 22.1793C64.7413 22.1793 63.7562 21.4069 63.7562 20.2483C63.7562 18.8138 65.2338 17.7103 67.4229 17.7103C68.4627 17.7103 69.6666 17.8758 70.597 18.262V19.8069C69.6666 21.2965 68.0249 22.1793 66.2189 22.1793Z" fill="white"></path>
		<path d="M91.0099 8.9931C91.8856 9.48965 91.8856 9.76552 90.9552 11.2552C90.0796 12.6345 89.9154 12.7448 88.9303 12.2483C88.2189 11.8621 87.0149 11.531 86.0846 11.531C83.0746 11.531 81.1045 13.5172 81.1045 16.5517C81.1045 19.6965 83.0746 21.7931 86.0846 21.7931C87.1244 21.7931 88.4378 21.4069 89.2587 20.9103C90.1343 20.4138 90.2985 20.4138 91.2288 21.7931C92.0497 23.0621 92.0497 23.3379 91.2836 23.8897C89.9701 24.8276 87.8358 25.5448 85.9751 25.5448C80.4477 25.5448 76.7263 21.9586 76.7263 16.6069C76.7263 11.2552 80.4477 7.72414 86.0298 7.72414C87.7811 7.66896 89.7512 8.22069 91.0099 8.9931Z" fill="white"></path>
		<path d="M109.124 23.1173C109.836 24 109.562 24.3311 107.811 24.938C106.06 25.6 105.786 25.5449 105.184 24.7173L100.204 18.0414L97.9602 20.1931V24.5518C97.9602 24.8828 97.5771 25.269 97.0845 25.269H94.6766C94.1293 25.269 93.801 24.8828 93.801 24.5518V1.6552C93.801 0.496579 94.1293 0.441406 95.8806 0.441406C97.9054 0.441406 97.9602 0.606924 97.9602 1.6552V14.6759L104.746 8.11037C105.512 7.39313 105.895 7.4483 107.264 8.33106C108.741 9.26899 108.851 9.54485 108.139 10.2621L103.104 15.2276L109.124 23.1173Z" fill="white"></path>
	</symbol>
	<symbol fill="none"
		xmlns="http://www.w3.org/2000/svg" viewBox="0 0 96 21" id="uber">
		<path d="M15.0448 0.732513V12.0139C15.0448 15.7744 13.4209 17.3372 9.6 17.3372C5.77911 17.3372 4.15522 15.7744 4.15522 12.0139V0.244141H0.477612C0.143284 0.244141 0 0.390652 0 0.732513V12.1604C0 18.4604 3.91642 20.6581 9.6 20.6581C15.2836 20.6581 19.2 18.4604 19.2 12.1604V0.244141H15.5224C15.2358 0.244141 15.0448 0.390652 15.0448 0.732513Z" fill="white"></path>
		<path d="M68.394 3.51623C68.6806 3.51623 68.8239 3.41856 68.9194 3.17437L69.9701 0.488327C70.0179 0.341815 69.9701 0.244141 69.8269 0.244141H55.0209C53.6358 0.244141 53.1104 0.683676 53.1104 1.66042V19.1441C53.1104 19.9744 53.4925 20.3162 54.591 20.3162H68.394C68.6806 20.3162 68.8239 20.2186 68.9194 19.9744L69.9701 17.2883C70.0179 17.1418 69.9701 17.0441 69.8269 17.0441H57.1701V13.479C57.1701 12.2581 57.8388 11.672 59.606 11.672H65.0985C65.3851 11.672 65.5284 11.5744 65.6239 11.3302L66.6269 8.74181C66.6746 8.5953 66.6269 8.49763 66.4836 8.49763H57.1224V3.51623H68.394Z" fill="white"></path>
		<path fill-rule="evenodd" clip-rule="evenodd" d="M44.609 5.32321C44.609 7.22786 43.9403 8.83949 42.3164 9.71856C44.5134 10.3534 45.5164 12.3558 45.4687 14.7488C45.4687 18.7534 42.6985 20.3162 38.8299 20.3162H28.5612C27.4627 20.3162 27.0806 19.9744 27.0806 19.1441V1.66042C27.0806 0.683676 27.606 0.244141 28.991 0.244141H37.397C41.0746 0.244141 44.609 0.879024 44.609 5.32321ZM31.1881 3.4674H37.6836C39.8328 3.4674 40.4537 4.29763 40.4537 6.05577C40.4537 7.76507 39.8328 8.64414 37.6836 8.64414H31.1881V3.4674ZM38.4478 17.093H31.1881V13.4302C31.1881 12.2093 31.8567 11.6232 33.6239 11.6232H38.4478C40.7403 11.6232 41.409 12.5511 41.409 14.3581C41.409 16.2139 40.7403 17.093 38.4478 17.093Z" fill="white"></path>
		<path fill-rule="evenodd" clip-rule="evenodd" d="M91.2717 12.2581L95.6657 19.9744C95.7612 20.072 95.7612 20.3162 95.4269 20.3162H91.7015C91.4261 20.3162 91.3271 20.1809 91.1926 19.9969C91.1872 19.9895 91.1817 19.982 91.1761 19.9744L87.212 12.6488H83.5821C81.8149 12.6488 81.1463 13.2348 81.1463 14.4558V20.3162H77.5642C77.2299 20.3162 77.0866 20.1697 77.0866 19.8279V1.66042C77.0866 0.683676 77.612 0.244141 78.997 0.244141H87.403C92.2746 0.244141 95.2358 1.56275 95.2358 6.44647C95.2358 10.2069 93.4687 11.672 91.2717 12.2581ZM81.1463 9.57205H87.9761C90.5552 9.57205 91.0806 8.54647 91.0806 6.4953C91.0806 4.49298 90.5075 3.4674 87.9761 3.4674H81.1463V9.57205Z" fill="white"></path>
	</symbol>
	<symbol fill="none"
		xmlns="http://www.w3.org/2000/svg" viewBox="0 0 96 30" id="airbnb">
		<path fill-rule="evenodd" clip-rule="evenodd" d="M27.4149 21.238L27.4149 21.2381C27.8448 22.3333 27.9403 23.3809 27.797 24.4285C27.4627 26.619 26.0298 28.5238 23.9284 29.3809C23.1642 29.7143 22.3522 29.8571 21.4925 29.8571C21.2537 29.8571 20.9672 29.8571 20.7284 29.8095C19.7254 29.7143 18.7224 29.3809 17.7194 28.8095C16.5254 28.1428 15.3313 27.1428 13.994 25.7143C12.6567 27.1428 11.5104 28.1428 10.2687 28.8095C9.26567 29.3809 8.26268 29.6666 7.2597 29.8095C7.14029 29.8095 7.00895 29.8214 6.87761 29.8333C6.74626 29.8452 6.61492 29.8571 6.49552 29.8571C5.63581 29.8571 4.82387 29.7143 4.0597 29.3809C2.00596 28.5238 0.477606 26.6666 0.143278 24.4285C-5.99027e-06 23.3333 0.143278 22.2857 0.525367 21.2381C0.668648 20.8095 0.811928 20.4762 0.955209 20.1429L0.955218 20.1428C1.19402 19.619 1.43283 19.0952 1.62387 18.619L1.67164 18.5714C3.77313 14.0952 5.97014 9.57141 8.26268 5.09521L8.3582 4.90474C8.59701 4.47617 8.83582 3.99998 9.07462 3.52379C9.1389 3.42308 9.20318 3.32061 9.26814 3.21705L9.26827 3.21685C9.54113 2.78186 9.82598 2.32777 10.1731 1.90474C11.1761 0.761881 12.5134 0.0952148 13.994 0.0952148C15.4269 0.0952148 16.8119 0.761881 17.7672 1.95236C18.2448 2.47617 18.5791 3.0476 18.8657 3.57141C19.1045 4.0476 19.3433 4.52379 19.5821 4.95236L19.6776 5.14283C22.0179 9.61902 24.2149 14.1428 26.2687 18.619H26.3164C26.5074 19.0952 26.7462 19.6189 26.985 20.1427L26.9851 20.1428C27.1283 20.4761 27.2716 20.857 27.4149 21.2379L27.4149 21.238L27.4149 21.238ZM50.4836 7.57141C50.4836 8.66664 49.6239 9.52379 48.5254 9.52379C47.4269 9.52379 46.5672 8.66664 46.5672 7.57141C46.5672 6.47617 47.4269 5.61902 48.5254 5.61902C49.6716 5.66664 50.4836 6.52379 50.4836 7.57141ZM42.5075 11.4762V11.9524C42.5075 11.9524 41.6 10.7619 39.594 10.7619C36.3463 10.7619 33.8149 13.2381 33.8149 16.6666C33.8149 20.0476 36.3463 22.5714 39.594 22.5714C41.6 22.5714 42.5075 21.3333 42.5075 21.3333V21.8571C42.5075 22.0952 42.6985 22.2857 42.9373 22.2857H45.3731V11.0476H42.9373C42.6507 11.0476 42.5075 11.2381 42.5075 11.4762ZM40.0716 19.8571C41.1701 19.8571 42.0776 19.2857 42.5075 18.619V14.619C42.0776 14 41.1224 13.3809 40.0716 13.3809C38.1612 13.3809 36.6806 14.5714 36.6806 16.619C36.6806 18.6666 38.1612 19.8571 40.0716 19.8571ZM49.9582 11.0476V22.2381H47.0925V11.0476H49.9582ZM87.0209 11.9524C87.0209 11.9524 87.9761 10.7619 89.9343 10.7619C93.1821 10.7619 95.7134 13.2381 95.7134 16.619C95.7134 20 93.1821 22.5238 89.9343 22.5238C87.9284 22.5238 87.0209 21.2857 87.0209 21.2857V21.8095C87.0209 22.0476 86.8298 22.2381 86.591 22.2381H84.1552V5.66664H87.0209V11.9524ZM89.4567 19.8095C88.3582 19.8095 87.4985 19.2381 87.0209 18.5714V14.5714C87.4507 13.9524 88.406 13.3333 89.4567 13.3333C91.3672 13.3333 92.8478 14.5238 92.8478 16.5714C92.8478 18.619 91.3672 19.8095 89.4567 19.8095ZM82.6746 22.2857V15.619C82.6746 13.7143 82.2925 12.6666 81.3373 11.8571C80.4776 11.1428 79.4269 10.7619 78.1851 10.7619C77.0866 10.7619 75.9881 11.0952 75.1284 11.9524V11.4762C75.1284 11.2381 74.9373 11.0476 74.6985 11.0476H72.406V22.2857H75.2716V14.4762C75.8448 13.8095 76.7522 13.3809 77.6119 13.3809C79.1881 13.3809 79.809 14.0952 79.809 15.9524V22.2857H82.6746ZM65.4328 10.7619C63.4746 10.7619 62.5194 11.9524 62.5194 11.9524V5.66664H59.6537V22.2381H62.0895C62.3284 22.2381 62.5194 22.0476 62.5194 21.8095V21.2857C62.5194 21.2857 63.4269 22.5238 65.4328 22.5238C68.6806 22.5238 71.2119 20 71.2119 16.619C71.2597 13.2381 68.7284 10.7619 65.4328 10.7619ZM62.5194 18.5714C62.997 19.2381 63.8567 19.8095 64.9552 19.8095C66.8657 19.8095 68.3463 18.619 68.3463 16.5714C68.3463 14.5238 66.8657 13.3333 64.9552 13.3333C63.9045 13.3333 62.9492 13.9524 62.5194 14.5714V18.5714ZM57.2179 10.7619C58.0776 10.7619 58.5552 10.9047 58.5552 10.9047V13.5714C58.5552 13.5714 56.1672 12.7619 54.6866 14.4762V22.2857H51.8209V11.0476H54.2567C54.4955 11.0476 54.6866 11.2381 54.6866 11.4762V11.9524C55.1642 11.3333 56.3104 10.7619 57.2179 10.7619ZM13.9463 22.7619C12.3224 20.7143 11.2716 18.8095 10.9373 17.2381C10.794 16.5714 10.7463 15.9524 10.8418 15.4285C10.8895 14.9524 11.0806 14.5238 11.3194 14.1905C11.8925 13.3809 12.8478 12.8571 13.9463 12.8571C15.0448 12.8571 16.0478 13.3333 16.5731 14.1905C16.8119 14.5714 17.003 14.9524 17.0507 15.4285C17.1463 15.9524 17.0985 16.5714 16.9552 17.2381C16.6209 18.8095 15.5701 20.7143 13.9463 22.7619ZM23.1642 27.6666C24.6448 27.0952 25.6955 25.7619 25.8866 24.1905C25.9821 23.3809 25.8866 22.6666 25.7433 21.9047C25.6916 21.7501 25.6259 21.5954 25.5537 21.4256C25.4926 21.2817 25.4269 21.1271 25.3612 20.9524C25.2418 20.7143 25.1343 20.4643 25.0269 20.2143C24.9194 19.9643 24.8119 19.7143 24.6925 19.4762V19.4285C22.6388 15 20.4418 10.4762 18.1492 6.0476L18.0537 5.85712C17.8149 5.38093 17.5761 4.90474 17.3373 4.47617C17.0985 3.99998 16.8119 3.52379 16.4776 3.14283C15.8567 2.42855 14.997 2.0476 14.0895 2.0476C13.1821 2.0476 12.3224 2.42855 11.7015 3.14283C11.3672 3.57141 11.0806 3.99998 10.8418 4.47617C10.603 4.95236 10.3642 5.42855 10.1254 5.85712L10.0298 6.0476C7.68955 10.4762 5.49253 15 3.4388 19.4285L3.39104 19.4762C3.15223 19.9524 2.91343 20.4762 2.72238 20.9524L2.72237 20.9524C2.57909 21.2857 2.43581 21.619 2.34029 21.9047C2.00596 22.7619 1.9582 23.4762 2.05373 24.2381C2.24477 25.7619 3.29552 27.0952 4.77611 27.7143C5.44477 27.9524 6.20895 28.0952 7.02089 28C7.78507 27.9047 8.54925 27.6666 9.31343 27.2381C10.3642 26.619 11.4627 25.7143 12.7045 24.3333C10.7463 21.9047 9.50447 19.6666 9.07462 17.7143C8.83581 16.8095 8.78805 15.9524 8.93134 15.1905C9.07462 14.4285 9.31343 13.7619 9.74328 13.1428C10.6507 11.8571 12.2269 11.0476 13.9463 11.0476C15.6657 11.0476 17.2418 11.8095 18.1492 13.1428C18.5791 13.7619 18.8179 14.4285 18.9612 15.1905C19.0567 15.9524 19.0089 16.8095 18.8179 17.7143C18.3403 19.6666 17.1463 21.8571 15.1881 24.2857C16.4298 25.6666 17.4806 26.5714 18.5791 27.1905C19.391 27.619 20.1075 27.8571 20.8716 27.9524C21.6836 28.0476 22.4478 27.9524 23.1642 27.6666Z" fill="white"></path>
	</symbol>
	<symbol fill="none"
		xmlns="http://www.w3.org/2000/svg" viewBox="0 0 96 25" id="fitbit">
		<path fill-rule="evenodd" clip-rule="evenodd" d="M14.016 1.83962C14.016 2.83019 13.152 3.67925 12.144 3.67925C11.136 3.67925 10.272 2.83019 10.272 1.83962C10.272 0.849057 11.136 0 12.144 0C13.152 0 14.016 0.849057 14.016 1.83962ZM12.144 5.18868C11.04 5.18868 10.176 6.03774 10.176 7.12264C10.176 8.20755 11.04 9.0566 12.144 9.0566C13.248 9.0566 14.112 8.20755 14.112 7.12264C14.112 5.99057 13.248 5.18868 12.144 5.18868ZM10.128 12.3113C10.128 11.2264 11.04 10.3302 12.144 10.3302C13.248 10.3302 14.208 11.2264 14.16 12.3113C14.16 13.3962 13.248 14.2925 12.144 14.2925C11.04 14.2925 10.128 13.3962 10.128 12.3113ZM12.144 15.566C11.04 15.566 10.176 16.4151 10.176 17.5C10.176 18.5849 11.04 19.434 12.144 19.434C13.248 19.434 14.112 18.5849 14.112 17.5C14.112 16.4623 13.248 15.566 12.144 15.566ZM10.272 22.7358C10.272 21.7453 11.136 20.8962 12.144 20.8962C13.2 20.8962 14.016 21.7453 14.016 22.7358C14.016 23.7264 13.152 24.5755 12.144 24.5755C11.136 24.5755 10.272 23.7264 10.272 22.7358ZM17.328 4.95283C16.128 4.95283 15.12 5.9434 15.12 7.12264C15.12 8.30189 16.128 9.29245 17.328 9.29245C18.528 9.29245 19.536 8.30189 19.536 7.12264C19.536 5.9434 18.528 4.95283 17.328 4.95283ZM15.024 12.3585C15.024 11.0849 16.08 10.0943 17.328 10.0943C18.576 10.0943 19.632 11.0849 19.632 12.3585C19.632 13.6321 18.576 14.6226 17.328 14.6226C16.032 14.6226 15.024 13.5849 15.024 12.3585ZM17.328 15.3302C16.128 15.3302 15.12 16.3208 15.12 17.5C15.12 18.6792 16.128 19.6698 17.328 19.6698C18.528 19.6698 19.536 18.6792 19.536 17.5C19.536 16.3208 18.528 15.3302 17.328 15.3302ZM20.112 12.3113C20.112 10.8962 21.312 9.81132 22.656 9.81132C24 9.81132 25.104 10.8962 25.2 12.3113C25.2 13.7264 24.096 14.8113 22.656 14.8113C21.216 14.8113 20.112 13.6321 20.112 12.3113ZM6.912 5.42453C6 5.42453 5.232 6.17924 5.232 7.07547C5.232 7.9717 6 8.72641 6.912 8.72641C7.824 8.72641 8.592 7.9717 8.592 7.07547C8.592 6.17924 7.872 5.42453 6.912 5.42453ZM5.136 12.3113C5.136 11.3208 5.904 10.566 6.912 10.566C7.92 10.566 8.688 11.3208 8.688 12.3113C8.688 13.3019 7.92 14.0566 6.912 14.0566C5.904 14.0566 5.136 13.3019 5.136 12.3113ZM6.912 15.8019C6 15.8019 5.232 16.5566 5.232 17.4528C5.232 18.3491 6 19.1038 6.912 19.1038C7.824 19.1038 8.592 18.3491 8.592 17.4528C8.592 16.5566 7.872 15.8019 6.912 15.8019ZM0.143997 12.3585C0.143997 11.5094 0.815997 10.8491 1.68 10.8491C2.544 10.8491 3.216 11.5094 3.216 12.3585C3.216 13.2075 2.544 13.8679 1.68 13.8679C0.815997 13.8679 0.143997 13.2075 0.143997 12.3585Z" fill="white"></path>
		<path d="M44.304 9.10388C44.112 9.10388 43.968 9.29256 43.968 9.43407V22.5001C43.968 22.6888 44.16 22.8303 44.304 22.8303H45.888C46.08 22.8303 46.224 22.6416 46.224 22.5001V9.43407C46.224 9.24539 46.032 9.10388 45.888 9.10388H44.304Z" fill="white"></path>
		<path d="M45.168 3.58496C44.304 3.58496 43.632 4.24534 43.632 5.09439C43.632 5.94345 44.304 6.60383 45.168 6.60383C46.032 6.60383 46.704 5.94345 46.704 5.09439C46.704 4.24534 45.984 3.58496 45.168 3.58496Z" fill="white"></path>
		<path d="M78.384 9.10388C78.192 9.10388 78.048 9.29256 78.048 9.43407V22.5001C78.048 22.6888 78.24 22.8303 78.384 22.8303H79.968C80.16 22.8303 80.304 22.6416 80.304 22.5001V9.43407C80.304 9.24539 80.112 9.10388 79.968 9.10388H78.384Z" fill="white"></path>
		<path d="M79.152 3.58496C78.288 3.58496 77.616 4.24534 77.616 5.09439C77.616 5.94345 78.288 6.60383 79.152 6.60383C80.016 6.60383 80.688 5.94345 80.688 5.09439C80.688 4.24534 80.016 3.58496 79.152 3.58496Z" fill="white"></path>
		<path fill-rule="evenodd" clip-rule="evenodd" d="M95.359 21.3997C95.3491 21.4456 95.3249 21.5012 95.266 21.5567C95.266 21.651 95.166 21.7454 94.966 21.6982L95.0426 21.7865C95.0326 21.7903 95.0237 21.7926 95.016 21.7926H94.866L95.216 22.2171H95.416L95.0426 21.7865C95.0592 21.7801 95.0788 21.7693 95.1003 21.7574C95.1488 21.7306 95.2074 21.6982 95.266 21.6982C95.366 21.6982 95.366 21.6039 95.366 21.5095C95.366 21.4707 95.366 21.4319 95.359 21.3997ZM94.666 21.7926V21.651V21.2265H95.016C95.116 21.2265 95.216 21.2265 95.266 21.3209C95.3249 21.3209 95.3491 21.3536 95.359 21.3997C95.366 21.3676 95.366 21.3403 95.366 21.3209V21.2265C95.366 21.2265 95.366 21.1322 95.266 21.1322C95.266 21.1322 95.166 21.0378 95.066 21.0378H94.866H94.416V22.2171H94.616V21.7926H94.666Z" fill="#8C98A4"></path>
		<path fill-rule="evenodd" clip-rule="evenodd" d="M93.792 21.6509C93.792 21.0849 94.32 20.566 94.896 20.566C95.52 20.566 96 21.0377 96 21.6509C96 22.217 95.472 22.7359 94.896 22.7359C94.32 22.7359 93.792 22.217 93.792 21.6509ZM93.888 21.6509C93.888 22.217 94.32 22.6415 94.896 22.6415C95.424 22.6415 95.904 22.217 95.904 21.6509C95.904 21.0849 95.472 20.6604 94.896 20.6604C94.32 20.6604 93.888 21.0849 93.888 21.6509Z" fill="#8C98A4"></path>
		<path d="M57.504 11.2265C57.696 11.2265 57.84 11.0378 57.84 10.8963V9.3397C57.84 9.15102 57.648 9.00951 57.504 9.00951H54.096V4.00951C54.096 3.82083 53.904 3.67932 53.76 3.67932H52.176C51.984 3.67932 51.84 3.868 51.84 4.00951V9.00951H50.16C49.968 9.00951 49.824 9.19819 49.824 9.3397V10.8963C49.824 11.085 50.016 11.2265 50.16 11.2265H51.84V18.7737C51.84 21.085 53.424 22.5944 55.728 22.5944H57.408C57.6 22.5944 57.744 22.4057 57.744 22.2642V20.7076C57.744 20.5189 57.552 20.3774 57.408 20.3774H55.968C54.864 20.3774 54.096 19.6227 54.096 18.4435V11.1793H57.504V11.2265Z" fill="white"></path>
		<path d="M91.2 11.2265C91.392 11.2265 91.536 11.0378 91.536 10.8963V9.3397C91.536 9.15102 91.344 9.00951 91.2 9.00951H87.792V4.00951C87.792 3.82083 87.6 3.67932 87.456 3.67932H85.872C85.68 3.67932 85.536 3.868 85.536 4.00951V9.00951H83.856C83.664 9.00951 83.52 9.19819 83.52 9.3397V10.8963C83.52 11.085 83.712 11.2265 83.856 11.2265H85.536V18.7737C85.536 21.085 87.12 22.5944 89.424 22.5944H91.104C91.296 22.5944 91.44 22.4057 91.44 22.2642V20.7076C91.44 20.5189 91.248 20.3774 91.104 20.3774H89.568C88.464 20.3774 87.696 19.6227 87.696 18.4435V11.1793H91.152L91.2 11.2265Z" fill="white"></path>
		<path d="M34.224 11.2265V22.3585C34.224 22.5472 34.416 22.6887 34.56 22.6887H36.144C36.336 22.6887 36.48 22.5 36.48 22.3585V11.2265H40.224C40.416 11.2265 40.56 11.0378 40.56 10.8963V9.33967C40.56 9.15099 40.368 9.00948 40.224 9.00948H36.48V6.08495C36.48 4.90571 37.344 4.10382 38.352 4.10382H40.224C40.416 4.10382 40.56 3.91514 40.56 3.77363V2.21703C40.56 2.02835 40.368 1.88684 40.224 1.88684H38.448C36.096 1.88684 34.224 3.8208 34.224 6.03778V9.00948H32.544C32.352 9.00948 32.208 9.19816 32.208 9.33967V10.8963C32.208 11.085 32.4 11.2265 32.544 11.2265H34.224Z" fill="white"></path>
		<path fill-rule="evenodd" clip-rule="evenodd" d="M68.112 8.58493C69.984 8.58493 71.76 9.33965 73.008 10.6604C74.256 11.9812 74.928 13.8208 74.928 15.8491C74.928 20.8963 71.424 23.1604 68.064 23.1604C64.656 23.1604 61.2 20.9434 61.2 15.8491V2.12267C61.2 1.98116 61.344 1.79248 61.536 1.79248H63.12C63.264 1.79248 63.456 1.93399 63.456 2.12267V10.4246C64.56 9.33965 66.336 8.58493 68.112 8.58493ZM63.408 15.8963C63.408 18.3963 64.656 21.0378 68.064 21.0378C71.472 21.0378 72.672 18.3963 72.72 15.8963C72.72 12.8774 70.848 10.8019 68.064 10.8019C65.28 10.8019 63.408 12.8302 63.408 15.8963Z" fill="white"></path>
	</symbol>
</svg>