<svg width="0" height="0" class="hidden">
	<symbol fill="none"
		xmlns="http://www.w3.org/2000/svg" viewBox="0 0 64 64" id="diamond">
		<path fill-rule="evenodd" clip-rule="evenodd" d="M32 64C49.6731 64 64 49.6731 64 32C64 14.3269 49.6731 0 32 0C14.3269 0 0 14.3269 0 32C0 49.6731 14.3269 64 32 64Z" fill="#E6F0FC"></path>
		<path d="M15.1056 14.5528C15.275 14.214 15.6212 14 16 14H48C48.3788 14 48.725 14.214 48.8944 14.5528L52.8944 22.5528C53.0502 22.8644 53.0326 23.2346 52.848 23.53L32.848 55.53C32.4563 56.1567 31.5437 56.1567 31.152 55.53L11.152 23.53C10.9674 23.2346 10.9498 22.8644 11.1056 22.5528L15.1056 14.5528Z" fill="#154E84"></path>
		<path d="M16.618 16L13.1452 22.9456L32 53.1132L50.8548 22.9456L47.382 16L16.618 16Z" fill="white"></path>
		<path fill-rule="evenodd" clip-rule="evenodd" d="M24 23L32 55L12 23H24Z" fill="white"></path>
		<path fill-rule="evenodd" clip-rule="evenodd" d="M40 23L32 55L52 23H40Z" fill="white"></path>
		<path fill-rule="evenodd" clip-rule="evenodd" d="M24 23L32 54L15 23L24 23Z" fill="#52ABE2"></path>
		<path fill-rule="evenodd" clip-rule="evenodd" d="M40 23L32 54L49 23L40 23Z" fill="#52ABE2"></path>
		<path fill-rule="evenodd" clip-rule="evenodd" d="M24.9701 22.7575C24.8588 22.3123 24.4589 22 24 22H12C11.2146 22 10.7357 22.864 11.152 23.53L31.152 55.53C31.7557 56.4959 33.2464 55.8625 32.9701 54.7575L24.9701 22.7575ZM13.8042 24H23.2192L29.4959 49.1066L13.8042 24Z" fill="#154E84"></path>
		<path fill-rule="evenodd" clip-rule="evenodd" d="M52.0023 22H40.0023C39.5435 22 39.1435 22.3123 39.0322 22.7575L31.0322 54.7575C30.7559 55.8625 32.2466 56.4959 32.8503 55.53L52.8503 23.53C53.2666 22.864 52.7878 22 52.0023 22ZM40.7831 24H50.1981L34.5065 49.1066L40.7831 24Z" fill="#154E84"></path>
		<path d="M15.1056 14.5528C15.275 14.214 15.6212 14 16 14H48C48.3788 14 48.725 14.214 48.8944 14.5528L52.8944 22.5528C53.2269 23.2177 52.7434 24 52 24H12C11.2566 24 10.7731 23.2177 11.1056 22.5528L15.1056 14.5528Z" fill="#154E84"></path>
		<path d="M16.618 16L13.618 22H50.382L47.382 16L16.618 16Z" fill="#FFC200"></path>
		<path d="M24.7071 23.7071C24.3166 24.0976 23.6834 24.0976 23.2929 23.7071L15.2929 15.7071C14.6629 15.0771 15.1091 14 16 14H48C48.8909 14 49.3371 15.0771 48.7071 15.7071L40.7071 23.7071C40.3166 24.0976 39.6834 24.0976 39.2929 23.7071L32 16.4142L24.7071 23.7071Z" fill="#154E84"></path>
		<path d="M18.4142 16L24 21.5858L29.5858 16H18.4142Z" fill="white"></path>
		<path d="M34.4142 16L40 21.5858L45.5858 16H34.4142Z" fill="white"></path>
	</symbol>
	<symbol fill="none"
		xmlns="http://www.w3.org/2000/svg" viewBox="0 0 64 64" id="graph">
		<path fill-rule="evenodd" clip-rule="evenodd" d="M32 64C49.6731 64 64 49.6731 64 32C64 14.3269 49.6731 0 32 0C14.3269 0 0 14.3269 0 32C0 49.6731 14.3269 64 32 64Z" fill="#E6F0FC"></path>
		<path d="M16 12H48C49.6569 12 51 13.3431 51 15V41C51 42.6569 49.6569 44 48 44H16C14.3431 44 13 42.6569 13 41V15C13 13.3431 14.3431 12 16 12Z" fill="#154E84"></path>
		<path d="M16 14C15.4477 14 15 14.4477 15 15V41C15 41.5523 15.4477 42 16 42H48C48.5523 42 49 41.5523 49 41V15C49 14.4477 48.5523 14 48 14H16Z" fill="white"></path>
		<path d="M11 39C11 38.4477 11.4477 38 12 38H52C52.5523 38 53 38.4477 53 39V41C53 42.6569 51.6569 44 50 44H14C12.3431 44 11 42.6569 11 41V39Z" fill="#154E84"></path>
		<path d="M13 40V41C13 41.5523 13.4477 42 14 42H50C50.5523 42 51 41.5523 51 41V40H13Z" fill="#52ABE2"></path>
		<path d="M14 12H50C51.6569 12 53 13.3431 53 15V17C53 17.5523 52.5523 18 52 18H12C11.4477 18 11 17.5523 11 17V15C11 13.3431 12.3431 12 14 12Z" fill="#154E84"></path>
		<path d="M51 16V15C51 14.4477 50.5523 14 50 14H14C13.4477 14 13 14.4477 13 15V16H51Z" fill="#52ABE2"></path>
		<path d="M32 42C32.7434 42 33.2269 42.7823 32.8944 43.4472L28.8944 51.4472C28.725 51.786 28.3788 52 28 52H24C23.2566 52 22.7731 51.2177 23.1056 50.5528L27.1056 42.5528C27.275 42.214 27.6212 42 28 42H32Z" fill="#154E84"></path>
		<path d="M28.618 44L25.618 50H27.382L30.382 44H28.618Z" fill="#FFC200"></path>
		<path d="M32 42C31.2566 42 30.7731 42.7823 31.1056 43.4472L35.1056 51.4472C35.275 51.786 35.6212 52 36 52H40C40.7434 52 41.2269 51.2177 40.8944 50.5528L36.8944 42.5528C36.725 42.214 36.3788 42 36 42H32Z" fill="#154E84"></path>
		<path d="M35.382 44L38.382 50H36.618L33.618 44H35.382Z" fill="#FFC200"></path>
		<path d="M32.3753 31.7808C32.7405 32.073 33.2595 32.073 33.6247 31.7808L43.6247 23.7808C44.056 23.4358 44.1259 22.8065 43.7809 22.3753C43.4359 21.944 42.8066 21.8741 42.3753 22.2191L33 29.7194L28.6247 26.2191C28.2686 25.9342 27.7648 25.9263 27.4 26.2L19.4 32.2C18.9582 32.5313 18.8686 33.1581 19.2 33.6C19.5314 34.0418 20.1582 34.1313 20.6 33.8L27.9802 28.2648L32.3753 31.7808Z" fill="#154E84"></path>
		<path d="M42 24V28C42 28.5523 42.4477 29 43 29C43.5523 29 44 28.5523 44 28V23C44 22.4477 43.5523 22 43 22H38C37.4477 22 37 22.4477 37 23C37 23.5523 37.4477 24 38 24H42Z" fill="#154E84"></path>
	</symbol>
	<symbol fill="none"
		xmlns="http://www.w3.org/2000/svg" viewBox="0 0 64 64" id="square">
		<path fill-rule="evenodd" clip-rule="evenodd" d="M32 64C49.6731 64 64 49.6731 64 32C64 14.3269 49.6731 0 32 0C14.3269 0 0 14.3269 0 32C0 49.6731 14.3269 64 32 64Z" fill="#E6F0FC"></path>
		<path d="M15 16C15 15.4477 15.4477 15 16 15H48C48.5523 15 49 15.4477 49 16V48C49 48.5523 48.5523 49 48 49H16C15.4477 49 15 48.5523 15 48V16Z" fill="#154E84"></path>
		<path d="M17 17V47H47V17H17Z" fill="white"></path>
		<path d="M11 12C11 11.4477 11.4477 11 12 11H20C20.5523 11 21 11.4477 21 12V20C21 20.5523 20.5523 21 20 21H12C11.4477 21 11 20.5523 11 20V12Z" fill="#154E84"></path>
		<path d="M13 13V19H19V13H13Z" fill="#FFC200"></path>
		<path d="M43 12C43 11.4477 43.4477 11 44 11H52C52.5523 11 53 11.4477 53 12V20C53 20.5523 52.5523 21 52 21H44C43.4477 21 43 20.5523 43 20V12Z" fill="#154E84"></path>
		<path d="M45 13V19H51V13H45Z" fill="#52ABE2"></path>
		<path d="M11 44C11 43.4477 11.4477 43 12 43H20C20.5523 43 21 43.4477 21 44V52C21 52.5523 20.5523 53 20 53H12C11.4477 53 11 52.5523 11 52V44Z" fill="#154E84"></path>
		<path d="M13 45V51H19V45H13Z" fill="#52ABE2"></path>
		<path d="M43 44C43 43.4477 43.4477 43 44 43H52C52.5523 43 53 43.4477 53 44V52C53 52.5523 52.5523 53 52 53H44C43.4477 53 43 52.5523 43 52V44Z" fill="#154E84"></path>
		<path d="M45 45V51H51V45H45Z" fill="#FFC200"></path>
	</symbol>
	<symbol fill="none"
		xmlns="http://www.w3.org/2000/svg" viewBox="0 0 64 64" id="book">
		<path fill-rule="evenodd" clip-rule="evenodd" d="M32 64C49.6731 64 64 49.6731 64 32C64 14.3269 49.6731 0 32 0C14.3269 0 0 14.3269 0 32C0 49.6731 14.3269 64 32 64Z" fill="#E6F0FC"></path>
		<path fill-rule="evenodd" clip-rule="evenodd" d="M12 18.6667H52.4444C53.549 18.6667 54.4444 19.5621 54.4444 20.6667V52C44.4424 49.284 42.8239 47.5556 32.2222 47.5556C21.6206 47.5556 20.002 49.284 10 52V20.6667C10 19.5621 10.8954 18.6667 12 18.6667Z" fill="white"></path>
		<path fill-rule="evenodd" clip-rule="evenodd" d="M54.4444 21C54.4444 19.8955 53.549 19 52.4444 19H12C10.8954 19 10 19.8955 10 21V20.6667C10 19.5621 10.8954 18.6667 12 18.6667H52.4444C53.549 18.6667 54.4444 19.5621 54.4444 20.6667V21ZM54.4444 49V52C44.4424 49.284 42.8239 47.5556 32.2222 47.5556C21.6206 47.5556 20.002 49.284 10 52V49C20.002 46.5556 21.6206 45 32.2222 45C42.8239 45 44.4424 46.5556 54.4444 49Z" fill="#52ABE2"></path>
		<path d="M44.1246 47.8743C40.6291 46.941 37.381 46.5556 32.2222 46.5556C27.0634 46.5556 23.8154 46.941 20.3198 47.8743C19.3698 48.1279 14.1763 49.7591 11 50.6789V20.6667C11 20.1144 11.4477 19.6667 12 19.6667H16.6678V17.6667H12C10.3431 17.6667 9 19.0098 9 20.6667V53.3078L10.2621 52.9651C13.1161 52.1901 19.8005 50.083 20.8357 49.8066C24.1543 48.9206 27.2302 48.5556 32.2222 48.5556C37.2143 48.5556 40.2902 48.9206 43.6087 49.8066C44.644 50.083 51.3284 52.1901 54.1824 52.9651L55.4444 53.3078V20.6667C55.4444 19.0098 54.1013 17.6667 52.4444 17.6667H47.8187V19.6667H52.4444C52.9967 19.6667 53.4444 20.1144 53.4444 20.6667V50.6789C50.2681 49.7591 45.0746 48.1279 44.1246 47.8743Z" fill="#154E84"></path>
		<path fill-rule="evenodd" clip-rule="evenodd" d="M16.6667 12C22.628 12 27.8132 13.4815 32.2222 16.4444C36.6931 13.4815 41.8783 12 47.7778 12V43.1111C41.898 43.1111 36.7128 44.5926 32.2222 47.5556C27.7763 44.5926 22.5912 43.1111 16.6667 43.1111C16.6667 43.1111 16.6667 12 16.6667 12Z" fill="white"></path>
		<path fill-rule="evenodd" clip-rule="evenodd" d="M48.7778 11H47.7778C41.9283 11 36.7369 12.4169 32.2258 15.252C27.7684 12.4164 22.5744 11 16.6667 11H15.6667V27.5556V38.25V44.1111H16.6667C22.3989 44.1111 27.3907 45.5373 31.6677 48.3877L32.2195 48.7554L32.773 48.3902C37.0961 45.5378 42.0894 44.1111 47.7778 44.1111H48.7778V21.8438V14.8711V12V11ZM17.6667 38.25V27.5556V13.0145C23.0139 13.1709 27.6726 14.5918 31.6645 17.2744L32.2184 17.6467L32.7747 17.278C36.8242 14.5942 41.4849 13.1728 46.7778 13.0148V38.25V42.1252C41.3505 42.2789 36.4933 43.692 32.2248 46.3652C27.9911 43.6905 23.1321 42.2777 17.6667 42.125V38.25Z" fill="#154E84"></path>
		<path d="M31.2222 16.4445V47.5556H33.2222V16.4445H31.2222Z" fill="#154E84"></path>
		<path d="M27.5457 21.8909C25.9093 21.0566 23.6752 20.4182 20.8496 19.9887C20.3036 19.9056 19.9283 19.3957 20.0113 18.8497C20.0943 18.3037 20.6042 17.9284 21.1502 18.0114C24.1712 18.4707 26.6038 19.1657 28.4542 20.1091C28.9462 20.36 29.1417 20.9622 28.8908 21.4542C28.6399 21.9463 28.0377 22.1418 27.5457 21.8909Z" fill="#FFC200"></path>
		<path d="M36.4542 21.8909C38.0906 21.0566 40.3247 20.4182 43.1503 19.9887C43.6963 19.9056 44.0717 19.3957 43.9886 18.8497C43.9056 18.3037 43.3957 17.9284 42.8497 18.0114C39.8287 18.4707 37.3961 19.1657 35.5458 20.1091C35.0537 20.36 34.8583 20.9622 35.1091 21.4542C35.36 21.9463 35.9622 22.1418 36.4542 21.8909Z" fill="#FFC200"></path>
		<path d="M27.5457 29.8909C25.9093 29.0566 23.6752 28.4182 20.8496 27.9887C20.3036 27.9056 19.9283 27.3957 20.0113 26.8497C20.0943 26.3037 20.6042 25.9284 21.1502 26.0114C24.1712 26.4707 26.6038 27.1657 28.4542 28.1091C28.9462 28.36 29.1417 28.9622 28.8908 29.4542C28.6399 29.9463 28.0377 30.1418 27.5457 29.8909Z" fill="#FFC200"></path>
		<path d="M36.4542 29.8909C38.0906 29.0566 40.3247 28.4182 43.1503 27.9887C43.6963 27.9056 44.0717 27.3957 43.9886 26.8497C43.9056 26.3037 43.3957 25.9284 42.8497 26.0114C39.8287 26.4707 37.3961 27.1657 35.5458 28.1091C35.0537 28.36 34.8583 28.9622 35.1091 29.4542C35.36 29.9463 35.9622 30.1418 36.4542 29.8909Z" fill="#FFC200"></path>
		<path d="M27.5457 37.8909C25.9093 37.0566 23.6752 36.4182 20.8496 35.9887C20.3036 35.9056 19.9283 35.3957 20.0113 34.8497C20.0943 34.3037 20.6042 33.9284 21.1502 34.0114C24.1712 34.4707 26.6038 35.1657 28.4542 36.1091C28.9462 36.36 29.1417 36.9622 28.8908 37.4542C28.6399 37.9463 28.0377 38.1418 27.5457 37.8909Z" fill="#FFC200"></path>
		<path d="M36.4542 37.8909C38.0906 37.0566 40.3247 36.4182 43.1503 35.9887C43.6963 35.9056 44.0717 35.3957 43.9886 34.8497C43.9056 34.3037 43.3957 33.9284 42.8497 34.0114C39.8287 34.4707 37.3961 35.1657 35.5458 36.1091C35.0537 36.36 34.8583 36.9622 35.1091 37.4542C35.36 37.9463 35.9622 38.1418 36.4542 37.8909Z" fill="#FFC200"></path>
	</symbol>
</svg>