<svg width="40" height="40" fill="none" xmlns="http://www.w3.org/2000/svg"><rect opacity=".1" width="40" height="40" rx="20" fill="#5A7184"/><path d="M26.333 13.333h-12.03c-.532 0-.97.469-.97 1.031v11.97c0 .562.438 1 .97 1h12.03c.532 0 1-.438 1-1v-11.97c0-.562-.468-1.03-1-1.03zm-8.78 12H15.49v-6.656h2.062v6.656zM16.52 17.74c-.688 0-1.219-.532-1.219-1.188a1.22 1.22 0 011.219-1.219c.656 0 1.187.563 1.187 1.219 0 .656-.53 1.188-1.187 1.188zm8.812 7.593H23.24v-3.25c0-.75 0-1.75-1.063-1.75-1.094 0-1.25.844-1.25 1.719v3.281h-2.062v-6.656h1.968v.906h.032c.28-.531.968-1.093 1.968-1.093 2.094 0 2.5 1.406 2.5 3.187v3.656z" fill="#5A7184"/></svg>