<svg width="64" height="64" fill="none" xmlns="http://www.w3.org/2000/svg"><path fill-rule="evenodd" clip-rule="evenodd" d="M32 64c17.673 0 32-14.327 32-32C64 14.327 49.673 0 32 0 14.327 0 0 14.327 0 32c0 17.673 14.327 32 32 32z" fill="#E6F0FC"/><path fill-rule="evenodd" clip-rule="evenodd" d="M12 18.667h40.444a2 2 0 012 2V52c-10.002-2.716-11.62-4.444-22.222-4.444-10.601 0-12.22 1.728-22.222 4.444V20.667a2 2 0 012-2z" fill="#fff"/><path fill-rule="evenodd" clip-rule="evenodd" d="M54.444 21a2 2 0 00-2-2H12a2 2 0 00-2 2v-.333a2 2 0 012-2h40.444a2 2 0 012 2V21zm0 28v3c-10.002-2.716-11.62-4.444-22.222-4.444-10.601 0-12.22 1.728-22.222 4.444v-3c10.002-2.444 11.62-4 22.222-4 10.602 0 12.22 1.556 22.222 4z" fill="#52ABE2"/><path d="M44.125 47.874c-3.496-.933-6.744-1.318-11.903-1.318-5.159 0-8.407.385-11.902 1.318-.95.254-6.144 1.885-9.32 2.805V20.667a1 1 0 011-1h4.668v-2H12a3 3 0 00-3 3v32.64l1.262-.342c2.854-.775 9.538-2.882 10.574-3.158 3.318-.886 6.394-1.251 11.386-1.251 4.992 0 8.068.365 11.387 1.25 1.035.277 7.72 2.384 10.573 3.16l1.262.342V20.667a3 3 0 00-3-3H47.82v2h4.625a1 1 0 011 1v30.012c-3.176-.92-8.37-2.551-9.32-2.805z" fill="#154E84"/><path fill-rule="evenodd" clip-rule="evenodd" d="M16.667 12c5.961 0 11.146 1.482 15.555 4.444C36.693 13.482 41.878 12 47.778 12v31.111c-5.88 0-11.065 1.482-15.556 4.445-4.446-2.963-9.63-4.445-15.555-4.445V12z" fill="#fff"/><path fill-rule="evenodd" clip-rule="evenodd" d="M48.778 11h-1c-5.85 0-11.041 1.417-15.552 4.252C27.768 12.416 22.574 11 16.666 11h-1v33.111h1c5.733 0 10.725 1.426 15.002 4.277l.551.367.554-.365c4.323-2.852 9.316-4.279 15.005-4.279h1V11zM17.667 38.25V13.014c5.347.157 10.006 1.578 13.997 4.26l.554.373.557-.369c4.05-2.684 8.71-4.105 14.003-4.263v29.11c-5.428.154-10.285 1.567-14.553 4.24-4.234-2.675-9.093-4.087-14.558-4.24V38.25z" fill="#154E84"/><path d="M31.222 16.445v31.11h2v-31.11h-2z" fill="#154E84"/><path d="M27.546 21.89c-1.637-.833-3.87-1.472-6.696-1.901a1 1 0 01.3-1.978c3.021.46 5.454 1.155 7.304 2.098a1 1 0 01-.908 1.782zm8.908 0c1.637-.833 3.87-1.472 6.696-1.901a1 1 0 00-.3-1.978c-3.021.46-5.454 1.155-7.304 2.098a1 1 0 00.908 1.782zm-8.908 8c-1.637-.833-3.87-1.472-6.696-1.901a1 1 0 01.3-1.978c3.021.46 5.454 1.155 7.304 2.098a1 1 0 01-.908 1.782zm8.908 0c1.637-.833 3.87-1.472 6.696-1.901a1 1 0 00-.3-1.978c-3.021.46-5.454 1.155-7.304 2.098a1 1 0 00.908 1.782zm-8.908 8c-1.637-.833-3.87-1.472-6.696-1.901a1 1 0 01.3-1.978c3.021.46 5.454 1.155 7.304 2.098a1 1 0 01-.908 1.782zm8.908 0c1.637-.833 3.87-1.472 6.696-1.901a1 1 0 00-.3-1.978c-3.021.46-5.454 1.155-7.304 2.098a1 1 0 00.908 1.782z" fill="#FFC200"/></svg>