<svg width="64" height="64" fill="none" xmlns="http://www.w3.org/2000/svg"><path fill-rule="evenodd" clip-rule="evenodd" d="M32 64c17.673 0 32-14.327 32-32C64 14.327 49.673 0 32 0 14.327 0 0 14.327 0 32c0 17.673 14.327 32 32 32z" fill="#E6F0FC"/><path d="M15.106 14.553A1 1 0 0116 14h32a1 1 0 01.894.553l4 8a1 1 0 01-.046.977l-20 32a1 1 0 01-1.696 0l-20-32a1 1 0 01-.046-.977l4-8z" fill="#154E84"/><path d="M16.618 16l-3.473 6.946L32 53.113l18.855-30.167L47.382 16H16.618z" fill="#fff"/><path fill-rule="evenodd" clip-rule="evenodd" d="M24 23l8 32-20-32h12zm16 0l-8 32 20-32H40z" fill="#fff"/><path fill-rule="evenodd" clip-rule="evenodd" d="M24 23l8 31-17-31h9zm16 0l-8 31 17-31h-9z" fill="#52ABE2"/><path fill-rule="evenodd" clip-rule="evenodd" d="M24.97 22.758A1 1 0 0024 22H12a1 1 0 00-.848 1.53l20 32c.604.966 2.094.332 1.818-.773l-8-32zM13.804 24h9.415l6.277 25.107L13.804 24z" fill="#154E84"/><path fill-rule="evenodd" clip-rule="evenodd" d="M52.002 22h-12a1 1 0 00-.97.758l-8 32c-.276 1.104 1.215 1.738 1.818.772l20-32a1 1 0 00-.848-1.53zm-11.219 2h9.415L34.507 49.107 40.782 24z" fill="#154E84"/><path d="M15.106 14.553A1 1 0 0116 14h32a1 1 0 01.894.553l4 8A1 1 0 0152 24H12a1 1 0 01-.894-1.447l4-8z" fill="#154E84"/><path d="M16.618 16l-3 6h36.764l-3-6H16.618z" fill="#FFC200"/><path d="M24.707 23.707a1 1 0 01-1.414 0l-8-8c-.63-.63-.184-1.707.707-1.707h32c.89 0 1.337 1.077.707 1.707l-8 8a1 1 0 01-1.414 0L32 16.414l-7.293 7.293z" fill="#154E84"/><path d="M18.414 16L24 21.586 29.586 16H18.414zm16 0L40 21.586 45.586 16H34.414z" fill="#fff"/></svg>