<svg width="64" height="64" fill="none" xmlns="http://www.w3.org/2000/svg"><path fill-rule="evenodd" clip-rule="evenodd" d="M32 64c17.673 0 32-14.327 32-32C64 14.327 49.673 0 32 0 14.327 0 0 14.327 0 32c0 17.673 14.327 32 32 32z" fill="#E6F0FC"/><path d="M16 12h32a3 3 0 013 3v26a3 3 0 01-3 3H16a3 3 0 01-3-3V15a3 3 0 013-3z" fill="#154E84"/><path d="M16 14a1 1 0 00-1 1v26a1 1 0 001 1h32a1 1 0 001-1V15a1 1 0 00-1-1H16z" fill="#fff"/><path d="M11 39a1 1 0 011-1h40a1 1 0 011 1v2a3 3 0 01-3 3H14a3 3 0 01-3-3v-2z" fill="#154E84"/><path d="M13 40v1a1 1 0 001 1h36a1 1 0 001-1v-1H13z" fill="#52ABE2"/><path d="M14 12h36a3 3 0 013 3v2a1 1 0 01-1 1H12a1 1 0 01-1-1v-2a3 3 0 013-3z" fill="#154E84"/><path d="M51 16v-1a1 1 0 00-1-1H14a1 1 0 00-1 1v1h38z" fill="#52ABE2"/><path d="M32 42a1 1 0 01.894 1.447l-4 8A1 1 0 0128 52h-4a1 1 0 01-.894-1.447l4-8A1 1 0 0128 42h4z" fill="#154E84"/><path d="M28.618 44l-3 6h1.764l3-6h-1.764z" fill="#FFC200"/><path d="M32 42a1 1 0 00-.894 1.447l4 8A1 1 0 0036 52h4a1 1 0 00.894-1.447l-4-8A1 1 0 0036 42h-4z" fill="#154E84"/><path d="M35.382 44l3 6h-1.764l-3-6h1.764z" fill="#FFC200"/><path d="M32.375 31.78a1 1 0 001.25 0l10-8a1 1 0 10-1.25-1.56L33 29.72l-4.375-3.5a1 1 0 00-1.225-.02l-8 6a1 1 0 101.2 1.6l7.38-5.535 4.395 3.516z" fill="#154E84"/><path d="M42 24v4a1 1 0 102 0v-5a1 1 0 00-1-1h-5a1 1 0 100 2h4z" fill="#154E84"/></svg>