<svg width="64" height="64" fill="none" xmlns="http://www.w3.org/2000/svg"><path fill-rule="evenodd" clip-rule="evenodd" d="M32 64c17.673 0 32-14.327 32-32C64 14.327 49.673 0 32 0 14.327 0 0 14.327 0 32c0 17.673 14.327 32 32 32z" fill="#E6F0FC"/><path d="M15 16a1 1 0 011-1h32a1 1 0 011 1v32a1 1 0 01-1 1H16a1 1 0 01-1-1V16z" fill="#154E84"/><path d="M17 17v30h30V17H17z" fill="#fff"/><path d="M11 12a1 1 0 011-1h8a1 1 0 011 1v8a1 1 0 01-1 1h-8a1 1 0 01-1-1v-8z" fill="#154E84"/><path d="M13 13v6h6v-6h-6z" fill="#FFC200"/><path d="M43 12a1 1 0 011-1h8a1 1 0 011 1v8a1 1 0 01-1 1h-8a1 1 0 01-1-1v-8z" fill="#154E84"/><path d="M45 13v6h6v-6h-6z" fill="#52ABE2"/><path d="M11 44a1 1 0 011-1h8a1 1 0 011 1v8a1 1 0 01-1 1h-8a1 1 0 01-1-1v-8z" fill="#154E84"/><path d="M13 45v6h6v-6h-6z" fill="#52ABE2"/><path d="M43 44a1 1 0 011-1h8a1 1 0 011 1v8a1 1 0 01-1 1h-8a1 1 0 01-1-1v-8z" fill="#154E84"/><path d="M45 45v6h6v-6h-6z" fill="#FFC200"/></svg>