<svg width="90" height="28" fill="none" xmlns="http://www.w3.org/2000/svg"><path fill-rule="evenodd" clip-rule="evenodd" d="M21.037.969v20.484c0 .271.09.498.272.68a.917.917 0 00.677.273h3.485c.27 0 .495-.09.677-.273a.925.925 0 00.272-.68v-9.397c1.483-1.49 2.873-2.822 4.17-2.822 1.981 0 2.972.76 2.972 3.25v8.97c0 .27.09.497.272.679a.917.917 0 00.677.273h3.47a.936.936 0 00.965-.953v-8.969c0-2.541-.633-4.43-1.899-5.664-1.265-1.234-2.907-1.851-4.924-1.851-2.018 0-3.919.755-5.703 2.265V.97a.944.944 0 00-.272-.696A.917.917 0 0025.47 0h-3.485a.917.917 0 00-.677.273.944.944 0 00-.273.696zM2.396 20.437C.798 18.918 0 16.727 0 13.867c0-2.86.804-5.057 2.412-6.594C4.02 5.737 6.25 4.97 9.102 4.97c2.853 0 5.078.747 6.675 2.242 1.598 1.495 2.397 3.638 2.397 6.43v.89a.946.946 0 01-.273.696.936.936 0 01-.692.273H5.493c.103 1.281.469 2.213 1.096 2.797.628.583 1.632.875 3.011.875 1.38 0 2.324-.313 2.832-.938s1.482-.529 2.984-.318c1.503.21 1.841 1.005 1.793 1.256-.477 2.46-2.973 3.556-8.122 3.547-2.863 0-5.093-.76-6.69-2.282zm3.064-8.234h7.236c-.104-2.458-1.305-3.687-3.602-3.687-2.298 0-3.51 1.229-3.634 3.687zm40.315 11.828l2.038.266c1.239 0 2.16-.773 2.767-2.318.011-.028-.078-.042-.242-.069-.627-.102-2.355-.383-3.863-2.272-1.728-2.165-1.985-3-2.654-5.18v-.001l-.218-.704-2.319-7.547a.824.824 0 01-.046-.29c0-.109.065-.241.194-.398.13-.156.324-.24.584-.25l3.059.013c.3 0 .589.102.864.305.274.203.453.456.536.758l2.039 6.625c.508 1.625 1.024 2.75 1.548 3.375s1.143.937 1.86.937l3.096-10.937c.083-.302.246-.555.49-.758.243-.203.516-.305.817-.305h3.283c.259 0 .45.084.575.25.125.167.187.305.187.414 0 .11-.01.2-.031.274l-4.077 14.593c-.726 2.584-1.626 4.428-2.7 5.532C52.49 27.448 51.109 28 49.418 28l-.65-.003c-1.35-.015-2.33-.076-2.936-.184-.7-.125-1.139-.28-1.315-.461a.883.883 0 01-.265-.633V25a.96.96 0 01.265-.695.91.91 0 01.684-.274h.576zm16.369-2.75c-1.37-.958-2.054-2.312-2.054-4.062 0-1.75.687-3.094 2.062-4.032 1.374-.937 3.145-1.406 5.313-1.406h5.15c0-1.219-.254-2.067-.762-2.547-.508-.479-1.398-.718-2.668-.718-1.187 0-2.043.274-2.569.823l-.108.122c-.513.63-2.13.416-3.572.138-1.444-.278-1.537-1.014-1.408-1.397.724-2.156 3.486-3.233 8.287-3.233 2.468 0 4.45.554 5.943 1.664C77.253 7.743 78 9.458 78 11.78v9.672c0 .281-.088.51-.264.688a.924.924 0 01-.685.265h-3.003a.91.91 0 01-.685-.273.939.939 0 01-.264-.68v-.484c-1.64 1.177-3.53 1.763-5.672 1.758-2.142-.006-3.903-.487-5.282-1.446zm5.695-5.953h4.776v2.438c-1.483.937-3.023 1.406-4.62 1.406-.8 0-1.417-.182-1.852-.547a1.735 1.735 0 01-.654-1.39c0-.563.21-1.021.63-1.376.42-.354.993-.53 1.72-.53z" fill="url(#paint0_linear_2_9)"/><path fill-rule="evenodd" clip-rule="evenodd" d="M86 14a4 4 0 100-8 4 4 0 000 8z" fill="#1576D8"/><defs><linearGradient id="paint0_linear_2_9" x1="0" y1="0" x2="0" y2="28" gradientUnits="userSpaceOnUse"><stop stop-color="#254A72"/><stop offset="1" stop-color="#10243E"/></linearGradient></defs></svg>