<?xml version="1.0" encoding="utf-8"?><svg viewBox="0 0 110 100" xmlns="http://www.w3.org/2000/svg" xmlns:xlink="http://www.w3.org/1999/xlink"><style>:root>svg{display:none}:root>svg:target{display:block}</style><svg fill="none" viewBox="0 0 96 30" id="airbnb" xmlns="http://www.w3.org/2000/svg"><path fill-rule="evenodd" clip-rule="evenodd" d="M27.415 21.238a6.21 6.21 0 01.382 3.19c-.334 2.191-1.767 4.096-3.869 4.953-.764.333-1.576.476-2.436.476-.238 0-.525 0-.764-.047-1.003-.096-2.006-.43-3.009-1-1.194-.667-2.388-1.667-3.725-3.096-1.337 1.429-2.484 2.429-3.725 3.096-1.003.57-2.006.857-3.01 1-.119 0-.25.011-.381.023-.132.012-.263.024-.382.024-.86 0-1.672-.143-2.436-.476-2.054-.857-3.582-2.714-3.917-4.953-.143-1.095 0-2.142.382-3.19.144-.428.287-.762.43-1.095.239-.524.478-1.048.669-1.524l.048-.048c2.101-4.476 4.298-9 6.59-13.476l.096-.19c.239-.429.478-.905.717-1.381l.193-.307c.273-.435.558-.89.905-1.312 1.003-1.143 2.34-1.81 3.821-1.81 1.433 0 2.818.667 3.773 1.857.478.524.812 1.096 1.099 1.62.239.476.477.952.716 1.38l.096.19c2.34 4.477 4.537 9 6.59 13.477h.048c.191.476.43 1 .669 1.524.143.333.287.714.43 1.095zM50.484 7.571c0 1.096-.86 1.953-1.959 1.953a1.934 1.934 0 01-1.958-1.953c0-1.095.86-1.952 1.958-1.952 1.147.048 1.959.905 1.959 1.952zm-7.977 3.905v.476s-.907-1.19-2.913-1.19c-3.248 0-5.78 2.476-5.78 5.905 0 3.38 2.532 5.904 5.78 5.904 2.006 0 2.913-1.238 2.913-1.238v.524c0 .238.192.429.43.429h2.436V11.048h-2.436c-.286 0-.43.19-.43.428zm-2.435 8.381c1.098 0 2.006-.571 2.435-1.238v-4c-.43-.619-1.385-1.238-2.435-1.238-1.91 0-3.391 1.19-3.391 3.238s1.48 3.238 3.39 3.238zm9.886-8.81v11.191h-2.865v-11.19h2.865zm37.063.905s.955-1.19 2.913-1.19c3.248 0 5.78 2.476 5.78 5.857 0 3.381-2.532 5.905-5.78 5.905-2.006 0-2.913-1.238-2.913-1.238v.523a.427.427 0 01-.43.43h-2.436V5.666h2.866v6.285zm2.436 7.857a2.994 2.994 0 01-2.436-1.238v-4c.43-.619 1.385-1.238 2.436-1.238 1.91 0 3.39 1.19 3.39 3.238s-1.48 3.238-3.39 3.238zm-6.782 2.477v-6.667c0-1.905-.382-2.952-1.338-3.762-.86-.714-1.91-1.095-3.152-1.095-1.098 0-2.197.333-3.057 1.19v-.476a.427.427 0 00-.43-.428h-2.292v11.238h2.866v-7.81c.573-.667 1.48-1.095 2.34-1.095 1.576 0 2.197.714 2.197 2.571v6.334h2.866zM65.433 10.762c-1.958 0-2.914 1.19-2.914 1.19V5.667h-2.865v16.571h2.435c.24 0 .43-.19.43-.428v-.524s.908 1.238 2.914 1.238c3.248 0 5.779-2.524 5.779-5.905.048-3.38-2.484-5.857-5.78-5.857zm-2.914 7.81a2.994 2.994 0 002.436 1.238c1.91 0 3.391-1.191 3.391-3.239 0-2.047-1.48-3.238-3.39-3.238-1.052 0-2.007.62-2.437 1.238v4zm-5.301-7.81c.86 0 1.337.143 1.337.143v2.666s-2.388-.81-3.868.905v7.81H51.82V11.048h2.436c.239 0 .43.19.43.428v.476c.477-.619 1.623-1.19 2.53-1.19zm-43.272 12c-1.624-2.048-2.674-3.953-3.009-5.524-.143-.667-.19-1.286-.095-1.81.047-.476.239-.904.477-1.238a3.192 3.192 0 012.627-1.333c1.099 0 2.102.476 2.627 1.334.239.38.43.761.478 1.237.095.524.048 1.143-.096 1.81-.334 1.572-1.385 3.476-3.009 5.524zm9.218 4.905a4.288 4.288 0 002.723-3.477c.095-.81 0-1.523-.144-2.285a6.567 6.567 0 00-.19-.48c-.06-.143-.126-.298-.192-.473-.12-.238-.227-.488-.334-.738-.108-.25-.215-.5-.335-.738v-.047A344.693 344.693 0 0018.15 6.047l-.095-.19a36.778 36.778 0 00-.717-1.382c-.238-.476-.525-.952-.86-1.333a3.137 3.137 0 00-2.388-1.095c-.907 0-1.767.38-2.388 1.095a7.93 7.93 0 00-.86 1.333c-.238.476-.477.953-.716 1.381l-.095.19C7.69 10.478 5.493 15 3.439 19.43l-.048.047c-.239.476-.478 1-.669 1.476-.143.334-.286.667-.382.953a4.507 4.507 0 00-.286 2.333c.19 1.524 1.242 2.857 2.722 3.476.669.238 1.433.381 2.245.286a6.205 6.205 0 002.292-.762c1.051-.619 2.15-1.524 3.391-2.905-1.958-2.428-3.2-4.666-3.63-6.619-.238-.904-.286-1.762-.143-2.523.144-.763.382-1.43.812-2.048.908-1.286 2.484-2.095 4.203-2.095 1.72 0 3.296.761 4.203 2.095.43.619.669 1.285.812 2.047.096.762.048 1.62-.143 2.524-.478 1.953-1.672 4.143-3.63 6.572 1.242 1.38 2.293 2.285 3.391 2.904.812.429 1.529.667 2.293.762.812.096 1.576 0 2.292-.285z" fill="#fff"/></svg><svg fill="none" viewBox="0 0 15 14" id="arrow-left" xmlns="http://www.w3.org/2000/svg"><path d="M9.063 12.906c.312-.312.28-.781 0-1.094L5.28 8.25h8.969A.74.74 0 0015 7.5v-1a.722.722 0 00-.75-.75H5.281l3.782-3.594a.814.814 0 000-1.094L8.374.375c-.313-.281-.781-.281-1.063 0L1.22 6.469c-.282.281-.282.75 0 1.062l6.093 6.063c.282.281.75.281 1.063 0l.688-.688z" fill="#183B56"/></svg><svg fill="none" viewBox="0 0 15 14" id="arrow-right" xmlns="http://www.w3.org/2000/svg"><path d="M5.938 1.094c-.313.312-.282.781 0 1.093l3.78 3.563H.75A.74.74 0 000 6.5v1c0 .438.313.75.75.75h8.969l-3.781 3.594a.814.814 0 000 1.094l.687.687c.313.281.781.281 1.063 0l6.093-6.094c.281-.281.281-.75 0-1.062L7.687.406c-.28-.281-.75-.281-1.062 0l-.688.688z" fill="#183B56"/></svg><svg fill="none" viewBox="0 0 64 64" id="book" xmlns="http://www.w3.org/2000/svg"><path fill-rule="evenodd" clip-rule="evenodd" d="M32 64c17.673 0 32-14.327 32-32C64 14.327 49.673 0 32 0 14.327 0 0 14.327 0 32c0 17.673 14.327 32 32 32z" fill="#E6F0FC"/><path fill-rule="evenodd" clip-rule="evenodd" d="M12 18.667h40.444a2 2 0 012 2V52c-10.002-2.716-11.62-4.444-22.222-4.444-10.601 0-12.22 1.728-22.222 4.444V20.667a2 2 0 012-2z" fill="#fff"/><path fill-rule="evenodd" clip-rule="evenodd" d="M54.444 21a2 2 0 00-2-2H12a2 2 0 00-2 2v-.333a2 2 0 012-2h40.444a2 2 0 012 2V21zm0 28v3c-10.002-2.716-11.62-4.444-22.222-4.444-10.601 0-12.22 1.728-22.222 4.444v-3c10.002-2.444 11.62-4 22.222-4 10.602 0 12.22 1.556 22.222 4z" fill="#52ABE2"/><path d="M44.125 47.874c-3.496-.933-6.744-1.318-11.903-1.318-5.159 0-8.407.385-11.902 1.318-.95.254-6.144 1.885-9.32 2.805V20.667a1 1 0 011-1h4.668v-2H12a3 3 0 00-3 3v32.64l1.262-.342c2.854-.775 9.538-2.882 10.574-3.158 3.318-.886 6.394-1.251 11.386-1.251 4.992 0 8.068.365 11.387 1.25 1.035.277 7.72 2.384 10.573 3.16l1.262.342V20.667a3 3 0 00-3-3H47.82v2h4.625a1 1 0 011 1v30.012c-3.176-.92-8.37-2.551-9.32-2.805z" fill="#154E84"/><path fill-rule="evenodd" clip-rule="evenodd" d="M16.667 12c5.961 0 11.146 1.482 15.555 4.444C36.693 13.482 41.878 12 47.778 12v31.111c-5.88 0-11.065 1.482-15.556 4.445-4.446-2.963-9.63-4.445-15.555-4.445V12z" fill="#fff"/><path fill-rule="evenodd" clip-rule="evenodd" d="M48.778 11h-1c-5.85 0-11.041 1.417-15.552 4.252C27.768 12.416 22.574 11 16.666 11h-1v33.111h1c5.733 0 10.725 1.426 15.002 4.277l.551.367.554-.365c4.323-2.852 9.316-4.279 15.005-4.279h1V11zM17.667 38.25V13.014c5.347.157 10.006 1.578 13.997 4.26l.554.373.557-.369c4.05-2.684 8.71-4.105 14.003-4.263v29.11c-5.428.154-10.285 1.567-14.553 4.24-4.234-2.675-9.093-4.087-14.558-4.24V38.25z" fill="#154E84"/><path d="M31.222 16.445v31.11h2v-31.11h-2z" fill="#154E84"/><path d="M27.546 21.89c-1.637-.833-3.87-1.472-6.696-1.901a1 1 0 01.3-1.978c3.021.46 5.454 1.155 7.304 2.098a1 1 0 01-.908 1.782zM36.454 21.89c1.637-.833 3.87-1.472 6.696-1.901a1 1 0 00-.3-1.978c-3.021.46-5.454 1.155-7.304 2.098a1 1 0 00.908 1.782zM27.546 29.89c-1.637-.833-3.87-1.472-6.696-1.901a1 1 0 01.3-1.978c3.021.46 5.454 1.155 7.304 2.098a1 1 0 01-.908 1.782zM36.454 29.89c1.637-.833 3.87-1.472 6.696-1.901a1 1 0 00-.3-1.978c-3.021.46-5.454 1.155-7.304 2.098a1 1 0 00.908 1.782zM27.546 37.89c-1.637-.833-3.87-1.472-6.696-1.901a1 1 0 01.3-1.978c3.021.46 5.454 1.155 7.304 2.098a1 1 0 01-.908 1.782zM36.454 37.89c1.637-.833 3.87-1.472 6.696-1.901a1 1 0 00-.3-1.978c-3.021.46-5.454 1.155-7.304 2.098a1 1 0 00.908 1.782z" fill="#FFC200"/></svg><svg fill="none" viewBox="0 0 31 37" id="btn-play" xmlns="http://www.w3.org/2000/svg"><path d="M28.281 15.527L4.906 1.715C2.98.585.125 1.715.125 4.438v27.625c0 2.523 2.656 4.05 4.781 2.789l23.375-13.813c2.059-1.262 2.059-4.25 0-5.512z" fill="#fff"/></svg><svg fill="none" viewBox="0 0 100 100" id="btn-play-bug" xmlns="http://www.w3.org/2000/svg"><path fill-rule="evenodd" clip-rule="evenodd" d="M50 100c27.614 0 50-22.386 50-50S77.614 0 50 0 0 22.386 0 50s22.386 50 50 50z" fill="#fff"/><path d="M63.281 49.527L39.906 35.715c-1.925-1.13-4.781 0-4.781 2.722v27.626c0 2.523 2.656 4.05 4.781 2.789l23.375-13.813c2.059-1.262 2.059-4.25 0-5.512z" fill="#1565D8"/></svg><svg fill="none" viewBox="0 0 14 19" id="checkbox" xmlns="http://www.w3.org/2000/svg"><path d="M12.063.25H1.937C.989.25.25 1.023.25 1.938V18.25L7 14.312l6.75 3.938V1.937c0-.914-.773-1.687-1.688-1.687zm0 15.082L7 12.379l-5.063 2.953V2.148c0-.105.07-.21.211-.21h9.704c.105 0 .21.105.21.21v13.184z" fill="#1565D8"/></svg><svg fill="none" viewBox="0 0 64 64" id="diamond" xmlns="http://www.w3.org/2000/svg"><path fill-rule="evenodd" clip-rule="evenodd" d="M32 64c17.673 0 32-14.327 32-32C64 14.327 49.673 0 32 0 14.327 0 0 14.327 0 32c0 17.673 14.327 32 32 32z" fill="#E6F0FC"/><path d="M15.106 14.553A1 1 0 0116 14h32a1 1 0 01.894.553l4 8a1 1 0 01-.046.977l-20 32a1 1 0 01-1.696 0l-20-32a1 1 0 01-.046-.977l4-8z" fill="#154E84"/><path d="M16.618 16l-3.473 6.946L32 53.113l18.855-30.167L47.382 16H16.618z" fill="#fff"/><path fill-rule="evenodd" clip-rule="evenodd" d="M24 23l8 32-20-32h12zM40 23l-8 32 20-32H40z" fill="#fff"/><path fill-rule="evenodd" clip-rule="evenodd" d="M24 23l8 31-17-31h9zM40 23l-8 31 17-31h-9z" fill="#52ABE2"/><path fill-rule="evenodd" clip-rule="evenodd" d="M24.97 22.758A1 1 0 0024 22H12a1 1 0 00-.848 1.53l20 32c.604.966 2.094.332 1.818-.773l-8-32zM13.804 24h9.415l6.277 25.107L13.804 24z" fill="#154E84"/><path fill-rule="evenodd" clip-rule="evenodd" d="M52.002 22h-12a1 1 0 00-.97.758l-8 32c-.276 1.104 1.215 1.738 1.818.772l20-32a1 1 0 00-.848-1.53zm-11.219 2h9.415L34.507 49.107 40.782 24z" fill="#154E84"/><path d="M15.106 14.553A1 1 0 0116 14h32a1 1 0 01.894.553l4 8A1 1 0 0152 24H12a1 1 0 01-.894-1.447l4-8z" fill="#154E84"/><path d="M16.618 16l-3 6h36.764l-3-6H16.618z" fill="#FFC200"/><path d="M24.707 23.707a1 1 0 01-1.414 0l-8-8c-.63-.63-.184-1.707.707-1.707h32c.89 0 1.337 1.077.707 1.707l-8 8a1 1 0 01-1.414 0L32 16.414l-7.293 7.293z" fill="#154E84"/><path d="M18.414 16L24 21.586 29.586 16H18.414zM34.414 16L40 21.586 45.586 16H34.414z" fill="#fff"/></svg><svg fill="none" viewBox="0 0 16 12" id="email" xmlns="http://www.w3.org/2000/svg"><path d="M15.688 3.969c-.72.562-1.626 1.25-4.813 3.562C10.25 8 9.094 9.031 8 9.031c-1.125 0-2.25-1.031-2.906-1.5C1.906 5.22 1 4.531.28 3.97c-.125-.094-.281 0-.281.156V10.5c0 .844.656 1.5 1.5 1.5h13a1.5 1.5 0 001.5-1.5V4.125c0-.156-.188-.25-.313-.156zM8 8c.719.031 1.75-.906 2.281-1.281 4.156-3 4.469-3.282 5.406-4.032A.711.711 0 0016 2.095V1.5c0-.813-.688-1.5-1.5-1.5h-13A1.5 1.5 0 000 1.5v.594c0 .25.094.469.281.594.938.75 1.25 1.03 5.407 4.03C6.218 7.095 7.25 8.032 8 8z" fill="#183B56"/></svg><svg fill="none" viewBox="0 0 96 25" id="fitbit" xmlns="http://www.w3.org/2000/svg"><path fill-rule="evenodd" clip-rule="evenodd" d="M14.016 1.84c0 .99-.864 1.84-1.872 1.84s-1.872-.85-1.872-1.84c0-.99.864-1.84 1.872-1.84s1.872.85 1.872 1.84zm-1.872 3.349c-1.104 0-1.968.849-1.968 1.934s.864 1.934 1.968 1.934 1.968-.85 1.968-1.934c0-1.132-.864-1.934-1.968-1.934zm-2.016 7.122c0-1.085.912-1.98 2.016-1.98s2.064.895 2.016 1.98c0 1.085-.912 1.982-2.016 1.982s-2.016-.897-2.016-1.982zm2.016 3.255c-1.104 0-1.968.85-1.968 1.934 0 1.085.864 1.934 1.968 1.934s1.968-.85 1.968-1.934c0-1.038-.864-1.934-1.968-1.934zm-1.872 7.17c0-.99.864-1.84 1.872-1.84 1.056 0 1.872.85 1.872 1.84 0 .99-.864 1.84-1.872 1.84s-1.872-.85-1.872-1.84zm7.056-17.783c-1.2 0-2.208.99-2.208 2.17 0 1.179 1.008 2.17 2.208 2.17 1.2 0 2.208-.991 2.208-2.17 0-1.18-1.008-2.17-2.208-2.17zm-2.304 7.405c0-1.273 1.056-2.264 2.304-2.264 1.248 0 2.304.99 2.304 2.264 0 1.274-1.056 2.265-2.304 2.265-1.296 0-2.304-1.038-2.304-2.264zm2.304 2.972c-1.2 0-2.208.99-2.208 2.17s1.008 2.17 2.208 2.17c1.2 0 2.208-.99 2.208-2.17s-1.008-2.17-2.208-2.17zm2.784-3.019c0-1.415 1.2-2.5 2.544-2.5s2.448 1.085 2.544 2.5c0 1.415-1.104 2.5-2.544 2.5s-2.544-1.179-2.544-2.5zm-13.2-6.886c-.912 0-1.68.754-1.68 1.65 0 .897.768 1.651 1.68 1.651.912 0 1.68-.754 1.68-1.65 0-.897-.72-1.651-1.68-1.651zM5.136 12.31c0-.99.768-1.745 1.776-1.745s1.776.755 1.776 1.745c0 .99-.768 1.746-1.776 1.746s-1.776-.755-1.776-1.746zm1.776 3.49c-.912 0-1.68.756-1.68 1.652 0 .896.768 1.65 1.68 1.65.912 0 1.68-.754 1.68-1.65 0-.896-.72-1.651-1.68-1.651zM.144 12.359c0-.849.672-1.509 1.536-1.509s1.536.66 1.536 1.51c0 .848-.672 1.509-1.536 1.509s-1.536-.66-1.536-1.51z" fill="#fff"/><path d="M44.304 9.104c-.192 0-.336.189-.336.33V22.5c0 .189.192.33.336.33h1.584c.192 0 .336-.188.336-.33V9.434c0-.189-.192-.33-.336-.33h-1.584zM45.168 3.585c-.864 0-1.536.66-1.536 1.51 0 .848.672 1.509 1.536 1.509s1.536-.66 1.536-1.51c0-.849-.72-1.509-1.536-1.509zM78.384 9.104c-.192 0-.336.189-.336.33V22.5c0 .189.192.33.336.33h1.584c.192 0 .336-.188.336-.33V9.434c0-.189-.192-.33-.336-.33h-1.584zM79.152 3.585c-.864 0-1.536.66-1.536 1.51 0 .848.672 1.509 1.536 1.509s1.536-.66 1.536-1.51c0-.849-.672-1.509-1.536-1.509z" fill="#fff"/><path fill-rule="evenodd" clip-rule="evenodd" d="M95.359 21.4a.3.3 0 01-.093.157c0 .094-.1.188-.3.141l.077.088a.078.078 0 01-.027.007h-.15l.35.424h.2l-.373-.43a.512.512 0 00.057-.03c.049-.026.107-.059.166-.059.1 0 .1-.094.1-.189 0-.038 0-.077-.007-.11zm-.693.393v-.566h.35c.1 0 .2 0 .25.094.059 0 .083.033.093.079.007-.032.007-.06.007-.08v-.093s0-.095-.1-.095c0 0-.1-.094-.2-.094h-.65v1.18h.2v-.425h.05z" fill="#8C98A4"/><path fill-rule="evenodd" clip-rule="evenodd" d="M93.792 21.65c0-.565.528-1.084 1.104-1.084.624 0 1.104.472 1.104 1.085 0 .566-.528 1.085-1.104 1.085-.576 0-1.104-.519-1.104-1.085zm.096 0c0 .567.432.992 1.008.992.528 0 1.008-.425 1.008-.991 0-.566-.432-.99-1.008-.99-.576 0-1.008.424-1.008.99z" fill="#8C98A4"/><path d="M57.504 11.226c.192 0 .336-.188.336-.33V9.34c0-.189-.192-.33-.336-.33h-3.408v-5c0-.19-.192-.33-.336-.33h-1.584c-.192 0-.336.188-.336.33v5h-1.68c-.192 0-.336.188-.336.33v1.556c0 .189.192.33.336.33h1.68v7.548c0 2.311 1.584 3.82 3.888 3.82h1.68c.192 0 .336-.188.336-.33v-1.556c0-.19-.192-.33-.336-.33h-1.44c-1.104 0-1.872-.755-1.872-1.934v-7.265h3.408v.047zM91.2 11.226c.192 0 .336-.188.336-.33V9.34c0-.189-.192-.33-.336-.33h-3.408v-5c0-.19-.192-.33-.336-.33h-1.584c-.192 0-.336.188-.336.33v5h-1.68c-.192 0-.336.188-.336.33v1.556c0 .189.192.33.336.33h1.68v7.548c0 2.311 1.584 3.82 3.888 3.82h1.68c.192 0 .336-.188.336-.33v-1.556c0-.19-.192-.33-.336-.33h-1.536c-1.104 0-1.872-.755-1.872-1.934v-7.265h3.456l.048.047zM34.224 11.226v11.132c0 .19.192.33.336.33h1.584c.192 0 .336-.188.336-.33V11.226h3.744c.192 0 .336-.188.336-.33V9.34c0-.189-.192-.33-.336-.33H36.48V6.084c0-1.18.864-1.981 1.872-1.981h1.872c.192 0 .336-.189.336-.33V2.217c0-.189-.192-.33-.336-.33h-1.776c-2.352 0-4.224 1.934-4.224 4.15V9.01h-1.68c-.192 0-.336.19-.336.33v1.557c0 .189.192.33.336.33h1.68z" fill="#fff"/><path fill-rule="evenodd" clip-rule="evenodd" d="M68.112 8.585c1.872 0 3.648.755 4.896 2.075 1.248 1.321 1.92 3.16 1.92 5.19 0 5.046-3.504 7.31-6.864 7.31-3.408 0-6.864-2.217-6.864-7.31V2.122c0-.142.144-.33.336-.33h1.584c.144 0 .336.141.336.33v8.302c1.104-1.085 2.88-1.84 4.656-1.84zm-4.704 7.311c0 2.5 1.248 5.142 4.656 5.142 3.408 0 4.608-2.642 4.656-5.142 0-3.019-1.872-5.094-4.656-5.094s-4.656 2.028-4.656 5.094z" fill="#fff"/></svg><svg fill="none" viewBox="0 0 96 32" id="google" xmlns="http://www.w3.org/2000/svg"><path d="M23.627 11.126H12.435v3.3h7.959c-.398 4.65-4.278 6.7-7.909 6.7-4.676 0-8.754-3.7-8.754-8.85 0-5.05 3.88-8.95 8.754-8.95 3.78 0 5.969 2.4 5.969 2.4l2.288-2.4s-2.985-3.3-8.406-3.3C5.422-.024.099 5.826.099 12.176c0 6.2 5.024 12.25 12.436 12.25 6.516 0 11.29-4.45 11.29-11.1 0-1.4-.198-2.2-.198-2.2z" fill="#fff"/><path fill-rule="evenodd" clip-rule="evenodd" d="M24.87 16.476c0-4.2 3.283-7.8 7.86-7.8 3.78 0 7.859 2.7 7.908 7.9 0 4.6-3.481 7.85-7.809 7.85-4.775 0-7.959-3.65-7.959-7.95zm12.287.1c0-2.9-2.14-4.75-4.378-4.75-2.537 0-4.476 2-4.427 4.7 0 2.8 1.94 4.8 4.427 4.8 2.288 0 4.377-1.85 4.377-4.75zM41.981 16.476c0-4.2 3.283-7.8 7.86-7.8 3.78 0 7.858 2.7 7.908 7.9 0 4.6-3.482 7.85-7.81 7.85-4.774 0-7.958-3.65-7.958-7.95zm12.286.1c0-2.9-2.139-4.75-4.377-4.75-2.537 0-4.477 2-4.427 4.7 0 2.8 1.94 4.8 4.427 4.8 2.288 0 4.377-1.85 4.377-4.75zM59.092 16.576c0-4.15 3.283-7.85 7.511-7.85 1.84 0 3.233.7 4.129 1.8v-1.35h3.282v14.15c0 5.55-3.183 8.2-7.361 8.2-3.83 0-5.97-2.35-7.014-4.6l3.035-1.25c.447 1 1.641 2.8 4.029 2.8 2.487 0 4.128-1.65 4.128-4.35v-1.55c-.945 1.05-2.089 1.9-4.327 1.9-3.582 0-7.412-3.2-7.412-7.9zm11.988.05c0-3-2.14-4.8-4.178-4.8-2.19 0-4.328 1.75-4.378 4.85 0 2.85 2.09 4.7 4.328 4.7 2.139 0 4.228-1.65 4.228-4.75zM81.426 16.526c0-4.7 3.332-7.85 7.312-7.85 3.084 0 5.422 2.1 6.466 4.5l.547 1.3-10.495 4.4c.647 1.2 1.641 2.4 3.83 2.4 1.94 0 3.134-1.05 3.83-2.15l2.736 1.85c-1.194 1.6-3.283 3.45-6.566 3.45-3.93 0-7.66-2.95-7.66-7.9zm10.346-3.1c-.497-.95-1.492-1.7-2.935-1.7-2.238 0-4.427 2.35-4.029 4.65l6.964-2.95z" fill="#fff"/><path d="M76.452 23.976h3.432V.776h-3.432v23.2z" fill="#fff"/></svg><svg fill="none" viewBox="0 0 42 40" id="google-soc" xmlns="http://www.w3.org/2000/svg"><rect opacity=".1" width="42" height="40" rx="20" fill="#5A7184"/><path d="M28.958 20.52c0-.5-.062-.874-.125-1.28h-7.375v2.656h4.375c-.156 1.156-1.312 3.343-4.375 3.343-2.656 0-4.812-2.187-4.812-4.906 0-4.343 5.125-6.343 7.875-3.687l2.125-2.032a7.516 7.516 0 00-5.188-2.03 7.729 7.729 0 00-7.75 7.75 7.709 7.709 0 007.75 7.75c4.47 0 7.5-3.126 7.5-7.563z" fill="#5A7184"/></svg><svg fill="none" viewBox="0 0 64 64" id="graph" xmlns="http://www.w3.org/2000/svg"><path fill-rule="evenodd" clip-rule="evenodd" d="M32 64c17.673 0 32-14.327 32-32C64 14.327 49.673 0 32 0 14.327 0 0 14.327 0 32c0 17.673 14.327 32 32 32z" fill="#E6F0FC"/><path d="M16 12h32a3 3 0 013 3v26a3 3 0 01-3 3H16a3 3 0 01-3-3V15a3 3 0 013-3z" fill="#154E84"/><path d="M16 14a1 1 0 00-1 1v26a1 1 0 001 1h32a1 1 0 001-1V15a1 1 0 00-1-1H16z" fill="#fff"/><path d="M11 39a1 1 0 011-1h40a1 1 0 011 1v2a3 3 0 01-3 3H14a3 3 0 01-3-3v-2z" fill="#154E84"/><path d="M13 40v1a1 1 0 001 1h36a1 1 0 001-1v-1H13z" fill="#52ABE2"/><path d="M14 12h36a3 3 0 013 3v2a1 1 0 01-1 1H12a1 1 0 01-1-1v-2a3 3 0 013-3z" fill="#154E84"/><path d="M51 16v-1a1 1 0 00-1-1H14a1 1 0 00-1 1v1h38z" fill="#52ABE2"/><path d="M32 42a1 1 0 01.894 1.447l-4 8A1 1 0 0128 52h-4a1 1 0 01-.894-1.447l4-8A1 1 0 0128 42h4z" fill="#154E84"/><path d="M28.618 44l-3 6h1.764l3-6h-1.764z" fill="#FFC200"/><path d="M32 42a1 1 0 00-.894 1.447l4 8A1 1 0 0036 52h4a1 1 0 00.894-1.447l-4-8A1 1 0 0036 42h-4z" fill="#154E84"/><path d="M35.382 44l3 6h-1.764l-3-6h1.764z" fill="#FFC200"/><path d="M32.375 31.78a1 1 0 001.25 0l10-8a1 1 0 10-1.25-1.56L33 29.72l-4.375-3.5a1 1 0 00-1.225-.02l-8 6a1 1 0 101.2 1.6l7.38-5.535 4.395 3.516z" fill="#154E84"/><path d="M42 24v4a1 1 0 102 0v-5a1 1 0 00-1-1h-5a1 1 0 100 2h4z" fill="#154E84"/></svg><svg fill="none" viewBox="0 0 20 18" id="heart" xmlns="http://www.w3.org/2000/svg"><path d="M17.242 2.465c-1.933-1.652-4.781-1.336-6.574.492L10 3.66l-.703-.703C7.539 1.129 4.657.813 2.723 2.465.508 4.363.403 7.738 2.37 9.777l6.82 7.032c.422.457 1.16.457 1.582 0l6.82-7.032c1.97-2.039 1.864-5.414-.35-7.312z" fill="#959EAD"/></svg><svg fill="none" viewBox="0 0 40 40" id="in" xmlns="http://www.w3.org/2000/svg"><rect opacity=".1" width="40" height="40" rx="20" fill="#5A7184"/><path d="M26.333 13.333h-12.03c-.532 0-.97.469-.97 1.031v11.97c0 .562.438 1 .97 1h12.03c.532 0 1-.438 1-1v-11.97c0-.562-.468-1.03-1-1.03zm-8.78 12H15.49v-6.656h2.062v6.656zM16.52 17.74c-.688 0-1.219-.532-1.219-1.188a1.22 1.22 0 011.219-1.219c.656 0 1.187.563 1.187 1.219 0 .656-.53 1.188-1.187 1.188zm8.812 7.593H23.24v-3.25c0-.75 0-1.75-1.063-1.75-1.094 0-1.25.844-1.25 1.719v3.281h-2.062v-6.656h1.968v.906h.032c.28-.531.968-1.093 1.968-1.093 2.094 0 2.5 1.406 2.5 3.187v3.656z" fill="#5A7184"/></svg><svg fill="none" viewBox="0 0 40 40" id="inst" xmlns="http://www.w3.org/2000/svg"><rect opacity=".1" width="40" height="40" rx="20" fill="#5A7184"/></svg><svg fill="none" viewBox="0 0 56 56" id="like" xmlns="http://www.w3.org/2000/svg"><rect width="56" height="56" rx="28" fill="#1576D8"/><path d="M37.656 20.953c-2.578-2.203-6.375-1.781-8.765.656l-.891.938-.938-.938c-2.343-2.437-6.187-2.859-8.765-.656-2.953 2.531-3.094 7.031-.469 9.75l9.094 9.375c.562.61 1.547.61 2.11 0l9.093-9.375c2.625-2.719 2.484-7.219-.469-9.75z" fill="#fff"/></svg><svg fill="none" viewBox="0 0 96 26" id="netflix" xmlns="http://www.w3.org/2000/svg"><path fill-rule="evenodd" clip-rule="evenodd" d="M10.76 24.35c-.553.056-1.114.114-1.688.184l-4.608-13.33v13.898c-1.44.142-2.736.33-4.128.567V.19h3.84l5.232 14.466V.189h4.08v23.826c-.902.148-1.803.24-2.728.335zM24.292 9.5a119.19 119.19 0 012.588-.045v3.97c-1.776 0-3.888 0-5.424.095v5.91c.748-.046 1.5-.096 2.257-.146 1.622-.107 3.258-.216 4.895-.28v3.829l-11.184.85V.19h11.184V4.16h-7.152v5.39c.81 0 1.835-.026 2.835-.05zm15.116-5.293h4.176s0-4.018.048-4.018H31.2v4.018h4.176V22.55c1.296-.047 2.688-.047 4.032-.047V4.207zM50.16 9.265h5.52v3.971h-5.52v9.03h-3.984V.188h11.28V4.16H50.16v5.105zm18.058 9.692a112.27 112.27 0 00-4.186-.19V.19H60v22.313c3.696.094 7.296.283 10.896.52v-3.924c-.886-.037-1.78-.089-2.678-.14zm7.448 4.436c.865.051 1.744.103 2.622.196V.19h-3.984v23.116c.449.033.904.06 1.362.088zm15.15-11.102L95.952.189h-4.464l-2.832 6.666-2.64-6.666h-4.32L86.4 12.15l-5.184 11.63c.576.075 1.152.135 1.728.196.864.09 1.728.181 2.592.323l2.976-6.76 2.88 7.375c.538.082 1.07.171 1.6.26.984.163 1.962.326 2.96.449L90.816 12.29z" fill="#fff"/></svg><svg fill="none" viewBox="0 0 110 32" id="slack" xmlns="http://www.w3.org/2000/svg"><path d="M19.701 3.2c-.437-1.435-1.97-2.207-3.393-1.766-1.422.442-2.189 1.987-1.75 3.421l7.004 21.738c.493 1.324 1.916 2.097 3.284 1.71 1.423-.441 2.298-1.93 1.86-3.365 0-.055-7.005-21.738-7.005-21.738zM8.866 6.786c-.438-1.434-1.97-2.207-3.393-1.765-1.423.441-2.19 1.986-1.752 3.42l7.005 21.738c.493 1.324 1.916 2.097 3.284 1.71 1.423-.44 2.298-1.93 1.86-3.365 0-.055-7.004-21.738-7.004-21.738z" fill="#fff"/><path d="M28.567 21.241c1.423-.441 2.19-1.986 1.751-3.42-.437-1.435-1.97-2.207-3.393-1.766L5.308 23.062c-1.313.497-2.08 1.931-1.696 3.31.438 1.435 1.915 2.318 3.338 1.876.11 0 21.617-7.007 21.617-7.007z" fill="#fff"/><path d="M9.796 27.366a179.933 179.933 0 005.144-1.71 183.86 183.86 0 00-1.696-5.187l-5.145 1.71 1.697 5.187zM20.687 23.78c1.97-.663 3.776-1.215 5.144-1.711a183.86 183.86 0 00-1.697-5.186l-5.144 1.71 1.697 5.186zM25.01 10.262c1.423-.441 2.189-1.986 1.751-3.42-.438-1.435-1.97-2.208-3.393-1.766L1.806 12.138c-1.313.496-2.08 1.93-1.697 3.31.438 1.49 1.916 2.373 3.339 1.876.054 0 21.562-7.062 21.562-7.062z" fill="#fff"/><path d="M6.293 16.386a180.335 180.335 0 005.145-1.71c-.657-1.986-1.204-3.807-1.697-5.186L4.597 11.2l1.696 5.186zM17.13 12.855c1.97-.662 3.775-1.214 5.144-1.71-.657-1.986-1.204-3.807-1.697-5.186l-5.144 1.71 1.696 5.186zM50.403 8.938c.93.441 1.04.717.274 2.152-.767 1.49-.93 1.544-1.916 1.158-1.204-.496-2.681-.882-3.667-.882-1.587 0-2.626.551-2.626 1.434 0 2.869 9.139 1.324 9.139 7.503 0 3.09-2.627 5.131-6.567 5.131-2.08 0-4.652-.717-6.403-1.6-.876-.44-.93-.717-.164-2.206.656-1.27.875-1.435 1.806-1.049 1.532.662 3.393 1.159 4.706 1.159 1.478 0 2.408-.607 2.408-1.49 0-2.814-9.303-1.49-9.303-7.448 0-3.145 2.626-5.297 6.512-5.297 1.86.166 4.214.718 5.801 1.435zM57.791 1.655v22.952c0 .33-.383.717-.876.717h-2.407c-.548 0-.876-.386-.876-.717V1.655c0-1.158.328-1.214 2.08-1.214 1.97-.055 2.079.11 2.079 1.214z" fill="#fff"/><path fill-rule="evenodd" clip-rule="evenodd" d="M74.756 24.386V14.51c0-4.303-2.9-6.841-7.497-6.841-2.08 0-4.378.662-6.02 1.765-.876.552-.876.828 0 2.207.93 1.38 1.094 1.435 1.97.938 1.094-.662 2.463-1.103 3.612-1.103 2.408 0 3.83 1.103 3.83 2.924v1.159c-1.148-.497-2.571-.773-4.104-.773-4.104 0-6.786 2.207-6.786 5.517 0 3.09 2.408 5.187 5.965 5.187 1.861 0 3.722-.773 4.98-2.207l-.054 1.048c-.055.552.328.938.875.938h2.354c.492 0 .875-.331.875-.883zM66.22 22.18c-1.478 0-2.463-.772-2.463-1.93 0-1.435 1.478-2.539 3.667-2.539 1.04 0 2.244.166 3.174.552v1.545c-.93 1.49-2.572 2.372-4.378 2.372z" fill="#fff"/><path d="M91.01 8.993c.876.497.876.773-.055 2.262-.875 1.38-1.04 1.49-2.025.993-.711-.386-1.915-.717-2.845-.717-3.01 0-4.98 1.986-4.98 5.02 0 3.146 1.97 5.242 4.98 5.242 1.04 0 2.353-.386 3.174-.883.875-.496 1.04-.496 1.97.883.82 1.27.82 1.545.055 2.097-1.314.938-3.448 1.655-5.309 1.655-5.527 0-9.249-3.586-9.249-8.938s3.722-8.883 9.304-8.883c1.751-.055 3.721.497 4.98 1.27zM109.124 23.117c.712.883.438 1.214-1.313 1.821-1.751.662-2.025.607-2.627-.22l-4.98-6.677-2.244 2.152v4.359c0 .33-.383.717-.875.717h-2.408c-.548 0-.876-.386-.876-.717V1.655c0-1.158.328-1.214 2.08-1.214 2.024 0 2.08.166 2.08 1.214v13.02l6.785-6.565c.766-.717 1.149-.662 2.518.221 1.477.938 1.587 1.214.875 1.931l-5.035 4.966 6.02 7.89z" fill="#fff"/></svg><svg fill="none" viewBox="0 0 64 64" id="square" xmlns="http://www.w3.org/2000/svg"><path fill-rule="evenodd" clip-rule="evenodd" d="M32 64c17.673 0 32-14.327 32-32C64 14.327 49.673 0 32 0 14.327 0 0 14.327 0 32c0 17.673 14.327 32 32 32z" fill="#E6F0FC"/><path d="M15 16a1 1 0 011-1h32a1 1 0 011 1v32a1 1 0 01-1 1H16a1 1 0 01-1-1V16z" fill="#154E84"/><path d="M17 17v30h30V17H17z" fill="#fff"/><path d="M11 12a1 1 0 011-1h8a1 1 0 011 1v8a1 1 0 01-1 1h-8a1 1 0 01-1-1v-8z" fill="#154E84"/><path d="M13 13v6h6v-6h-6z" fill="#FFC200"/><path d="M43 12a1 1 0 011-1h8a1 1 0 011 1v8a1 1 0 01-1 1h-8a1 1 0 01-1-1v-8z" fill="#154E84"/><path d="M45 13v6h6v-6h-6z" fill="#52ABE2"/><path d="M11 44a1 1 0 011-1h8a1 1 0 011 1v8a1 1 0 01-1 1h-8a1 1 0 01-1-1v-8z" fill="#154E84"/><path d="M13 45v6h6v-6h-6z" fill="#52ABE2"/><path d="M43 44a1 1 0 011-1h8a1 1 0 011 1v8a1 1 0 01-1 1h-8a1 1 0 01-1-1v-8z" fill="#154E84"/><path d="M45 45v6h6v-6h-6z" fill="#FFC200"/></svg><svg fill="none" viewBox="0 0 42 40" id="tw" xmlns="http://www.w3.org/2000/svg"><rect opacity=".1" width="42" height="40" rx="20" fill="#5A7184"/></svg><svg fill="none" viewBox="0 0 96 21" id="uber" xmlns="http://www.w3.org/2000/svg"><path d="M15.045.733v11.28c0 3.761-1.624 5.324-5.445 5.324-3.82 0-5.445-1.563-5.445-5.323V.244H.478C.143.244 0 .391 0 .733V12.16c0 6.3 3.916 8.498 9.6 8.498 5.684 0 9.6-2.198 9.6-8.498V.244h-3.678c-.286 0-.477.147-.477.489zM68.394 3.516c.287 0 .43-.097.525-.342L69.97.488c.048-.146 0-.244-.143-.244H55.02c-1.385 0-1.91.44-1.91 1.416v17.484c0 .83.382 1.172 1.48 1.172h13.803c.287 0 .43-.097.525-.342l1.051-2.686c.048-.146 0-.244-.143-.244H57.17V13.48c0-1.22.669-1.807 2.436-1.807h5.492c.287 0 .43-.098.526-.342l1.003-2.588c.048-.147 0-.244-.143-.244h-9.362V3.516h11.272z" fill="#fff"/><path fill-rule="evenodd" clip-rule="evenodd" d="M44.609 5.323c0 1.905-.669 3.516-2.293 4.396 2.197.634 3.2 2.637 3.153 5.03 0 4.004-2.77 5.567-6.64 5.567H28.562c-1.098 0-1.48-.342-1.48-1.172V1.66c0-.976.525-1.416 1.91-1.416h8.406c3.678 0 7.212.635 7.212 5.08zm-13.42-1.856h6.495c2.149 0 2.77.83 2.77 2.589 0 1.71-.621 2.588-2.77 2.588h-6.496V3.467zm7.259 13.626h-7.26V13.43c0-1.22.669-1.807 2.436-1.807h4.824c2.292 0 2.961.928 2.961 2.735 0 1.856-.669 2.735-2.961 2.735zM91.272 12.258l4.394 7.716c.095.098.095.342-.24.342h-3.725c-.275 0-.374-.135-.508-.32a6.033 6.033 0 00-.017-.022l-3.964-7.325h-3.63c-1.767 0-2.436.586-2.436 1.807v5.86h-3.582c-.334 0-.477-.146-.477-.488V1.66c0-.976.525-1.416 1.91-1.416h8.406c4.872 0 7.833 1.319 7.833 6.202 0 3.76-1.767 5.226-3.964 5.812zM81.146 9.572h6.83c2.58 0 3.105-1.026 3.105-3.077 0-2.002-.574-3.028-3.105-3.028h-6.83v6.105z" fill="#fff"/></svg></svg>