<svg width="0" height="0" class="hidden">
	<symbol fill="none"
		xmlns="http://www.w3.org/2000/svg" viewBox="0 0 100 100" id="btn-play-bug">
		<path fill-rule="evenodd" clip-rule="evenodd" d="M50 100C77.6142 100 100 77.6142 100 50C100 22.3858 77.6142 0 50 0C22.3858 0 0 22.3858 0 50C0 77.6142 22.3858 100 50 100Z" fill="white"></path>
		<path d="M63.2812 49.5273L39.9062 35.7148C37.9805 34.5859 35.125 35.7148 35.125 38.4375V66.0625C35.125 68.5859 37.7812 70.1133 39.9062 68.8516L63.2812 55.0391C65.3398 53.7773 65.3398 50.7891 63.2812 49.5273Z" fill="#1565D8"></path>
	</symbol>
	<symbol fill="none"
		xmlns="http://www.w3.org/2000/svg" viewBox="0 0 14 19" id="checkbox">
		<path d="M12.0625 0.25H1.9375C0.988281 0.25 0.25 1.02344 0.25 1.9375V18.25L7 14.3125L13.75 18.25V1.9375C13.75 1.02344 12.9766 0.25 12.0625 0.25ZM12.0625 15.332L7 12.3789L1.9375 15.332V2.14844C1.9375 2.04297 2.00781 1.9375 2.14844 1.9375H11.8516C11.957 1.9375 12.0625 2.04297 12.0625 2.14844V15.332Z" fill="#1565D8"></path>
	</symbol>
	<symbol fill="none"
		xmlns="http://www.w3.org/2000/svg" viewBox="0 0 16 12" id="email">
		<path d="M15.6875 3.96875C14.9688 4.53125 14.0625 5.21875 10.875 7.53125C10.25 8 9.09375 9.03125 8 9.03125C6.875 9.03125 5.75 8 5.09375 7.53125C1.90625 5.21875 1 4.53125 0.28125 3.96875C0.15625 3.875 0 3.96875 0 4.125V10.5C0 11.3438 0.65625 12 1.5 12H14.5C15.3125 12 16 11.3438 16 10.5V4.125C16 3.96875 15.8125 3.875 15.6875 3.96875ZM8 8C8.71875 8.03125 9.75 7.09375 10.2812 6.71875C14.4375 3.71875 14.75 3.4375 15.6875 2.6875C15.875 2.5625 16 2.34375 16 2.09375V1.5C16 0.6875 15.3125 0 14.5 0H1.5C0.65625 0 0 0.6875 0 1.5V2.09375C0 2.34375 0.09375 2.5625 0.28125 2.6875C1.21875 3.4375 1.53125 3.71875 5.6875 6.71875C6.21875 7.09375 7.25 8.03125 8 8Z" fill="#183B56"></path>
	</symbol>
	<symbol fill="none"
		xmlns="http://www.w3.org/2000/svg" viewBox="0 0 20 18" id="heart">
		<path d="M17.2422 2.46484C15.3086 0.8125 12.4609 1.12891 10.668 2.95703L10 3.66016L9.29688 2.95703C7.53906 1.12891 4.65625 0.8125 2.72266 2.46484C0.507812 4.36328 0.402344 7.73828 2.37109 9.77734L9.19141 16.8086C9.61328 17.2656 10.3516 17.2656 10.7734 16.8086L17.5938 9.77734C19.5625 7.73828 19.457 4.36328 17.2422 2.46484Z" fill="#959EAD"></path>
	</symbol>
	<symbol fill="none"
		xmlns="http://www.w3.org/2000/svg" viewBox="0 0 56 56" id="like">
		<rect width="56" height="56" rx="28" fill="#1576D8"></rect>
		<path d="M37.6562 20.9531C35.0781 18.75 31.2812 19.1719 28.8906 21.6094L28 22.5469L27.0625 21.6094C24.7188 19.1719 20.875 18.75 18.2969 20.9531C15.3438 23.4844 15.2031 27.9844 17.8281 30.7031L26.9219 40.0781C27.4844 40.6875 28.4688 40.6875 29.0312 40.0781L38.125 30.7031C40.75 27.9844 40.6094 23.4844 37.6562 20.9531Z" fill="white"></path>
	</symbol>
	<symbol fill="none"
		xmlns="http://www.w3.org/2000/svg" viewBox="0 0 15 14" id="arrow-left">
		<path d="M9.0625 12.9062C9.375 12.5938 9.34375 12.125 9.0625 11.8125L5.28125 8.25H14.25C14.6875 8.25 15 7.90625 15 7.5V6.5C15 6.0625 14.6875 5.75 14.25 5.75L5.28125 5.75L9.0625 2.15625C9.34375 1.84375 9.34375 1.375 9.0625 1.0625L8.375 0.375C8.0625 0.09375 7.59375 0.09375 7.3125 0.375L1.21875 6.46875C0.9375 6.75 0.9375 7.21875 1.21875 7.53125L7.3125 13.5938C7.59375 13.875 8.0625 13.875 8.375 13.5938L9.0625 12.9062Z" fill="#183B56"></path>
	</symbol>
	<symbol fill="none"
		xmlns="http://www.w3.org/2000/svg" viewBox="0 0 15 14" id="arrow-right">
		<path d="M5.9375 1.09375C5.625 1.40625 5.65625 1.875 5.9375 2.1875L9.71875 5.75H0.75C0.3125 5.75 0 6.09375 0 6.5V7.5C0 7.9375 0.3125 8.25 0.75 8.25H9.71875L5.9375 11.8438C5.65625 12.1562 5.65625 12.625 5.9375 12.9375L6.625 13.625C6.9375 13.9062 7.40625 13.9062 7.6875 13.625L13.7812 7.53125C14.0625 7.25 14.0625 6.78125 13.7812 6.46875L7.6875 0.40625C7.40625 0.125 6.9375 0.125 6.625 0.40625L5.9375 1.09375Z" fill="#183B56"></path>
	</symbol>
	<symbol fill="none"
		xmlns="http://www.w3.org/2000/svg" viewBox="0 0 31 37" id="btn-play">
		<path d="M28.2812 15.5273L4.90625 1.71484C2.98047 0.585938 0.125 1.71484 0.125 4.4375V32.0625C0.125 34.5859 2.78125 36.1133 4.90625 34.8516L28.2812 21.0391C30.3398 19.7773 30.3398 16.7891 28.2812 15.5273Z" fill="white"></path>
	</symbol>
</svg>