<svg width="96" height="30" fill="none" xmlns="http://www.w3.org/2000/svg"><path fill-rule="evenodd" clip-rule="evenodd" d="M27.415 21.238a6.21 6.21 0 01.382 3.19c-.334 2.191-1.767 4.096-3.869 4.953-.764.333-1.576.476-2.436.476-.238 0-.525 0-.764-.047-1.003-.096-2.006-.43-3.009-1-1.194-.667-2.388-1.667-3.725-3.096-1.337 1.429-2.484 2.429-3.725 3.096-1.003.57-2.006.857-3.01 1-.119 0-.25.011-.381.023-.132.012-.263.024-.382.024-.86 0-1.672-.143-2.436-.476-2.054-.857-3.582-2.714-3.917-4.953-.143-1.095 0-2.142.382-3.19.144-.428.287-.762.43-1.095.239-.524.478-1.048.669-1.524l.048-.048c2.101-4.476 4.298-9 6.59-13.476l.096-.19c.239-.429.478-.905.717-1.381l.193-.307c.273-.435.558-.89.905-1.312 1.003-1.143 2.34-1.81 3.821-1.81 1.433 0 2.818.667 3.773 1.857.478.524.812 1.096 1.099 1.62.239.476.477.952.716 1.38l.096.19c2.34 4.477 4.537 9 6.59 13.477h.048c.191.476.43 1 .669 1.524.143.333.287.714.43 1.095zM50.484 7.571c0 1.096-.86 1.953-1.959 1.953a1.934 1.934 0 01-1.958-1.953c0-1.095.86-1.952 1.958-1.952 1.147.048 1.959.905 1.959 1.952zm-7.977 3.905v.476s-.907-1.19-2.913-1.19c-3.248 0-5.78 2.476-5.78 5.905 0 3.38 2.532 5.904 5.78 5.904 2.006 0 2.913-1.238 2.913-1.238v.524c0 .238.192.429.43.429h2.436V11.048h-2.436c-.286 0-.43.19-.43.428zm-2.435 8.381c1.098 0 2.006-.571 2.435-1.238v-4c-.43-.619-1.385-1.238-2.435-1.238-1.91 0-3.391 1.19-3.391 3.238s1.48 3.238 3.39 3.238zm9.886-8.81v11.191h-2.865v-11.19h2.865zm37.063.905s.955-1.19 2.913-1.19c3.248 0 5.78 2.476 5.78 5.857 0 3.381-2.532 5.905-5.78 5.905-2.006 0-2.913-1.238-2.913-1.238v.523a.427.427 0 01-.43.43h-2.436V5.666h2.866v6.285zm2.436 7.857a2.994 2.994 0 01-2.436-1.238v-4c.43-.619 1.385-1.238 2.436-1.238 1.91 0 3.39 1.19 3.39 3.238s-1.48 3.238-3.39 3.238zm-6.782 2.477v-6.667c0-1.905-.382-2.952-1.338-3.762-.86-.714-1.91-1.095-3.152-1.095-1.098 0-2.197.333-3.057 1.19v-.476a.427.427 0 00-.43-.428h-2.292v11.238h2.866v-7.81c.573-.667 1.48-1.095 2.34-1.095 1.576 0 2.197.714 2.197 2.571v6.334h2.866zM65.433 10.762c-1.958 0-2.914 1.19-2.914 1.19V5.667h-2.865v16.571h2.435c.24 0 .43-.19.43-.428v-.524s.908 1.238 2.914 1.238c3.248 0 5.779-2.524 5.779-5.905.048-3.38-2.484-5.857-5.78-5.857zm-2.914 7.81a2.994 2.994 0 002.436 1.238c1.91 0 3.391-1.191 3.391-3.239 0-2.047-1.48-3.238-3.39-3.238-1.052 0-2.007.62-2.437 1.238v4zm-5.301-7.81c.86 0 1.337.143 1.337.143v2.666s-2.388-.81-3.868.905v7.81H51.82V11.048h2.436c.239 0 .43.19.43.428v.476c.477-.619 1.623-1.19 2.53-1.19zm-43.272 12c-1.624-2.048-2.674-3.953-3.009-5.524-.143-.667-.19-1.286-.095-1.81.047-.476.239-.904.477-1.238a3.192 3.192 0 012.627-1.333c1.099 0 2.102.476 2.627 1.334.239.38.43.761.478 1.237.095.524.048 1.143-.096 1.81-.334 1.572-1.385 3.476-3.009 5.524zm9.218 4.905a4.288 4.288 0 002.723-3.477c.095-.81 0-1.523-.144-2.285a6.567 6.567 0 00-.19-.48c-.06-.143-.126-.298-.192-.473-.12-.238-.227-.488-.334-.738-.108-.25-.215-.5-.335-.738v-.047A344.693 344.693 0 0018.15 6.047l-.095-.19a36.778 36.778 0 00-.717-1.382c-.238-.476-.525-.952-.86-1.333a3.137 3.137 0 00-2.388-1.095c-.907 0-1.767.38-2.388 1.095a7.93 7.93 0 00-.86 1.333c-.238.476-.477.953-.716 1.381l-.095.19C7.69 10.478 5.493 15 3.439 19.43l-.048.047c-.239.476-.478 1-.669 1.476-.143.334-.286.667-.382.953a4.507 4.507 0 00-.286 2.333c.19 1.524 1.242 2.857 2.722 3.476.669.238 1.433.381 2.245.286a6.205 6.205 0 002.292-.762c1.051-.619 2.15-1.524 3.391-2.905-1.958-2.428-3.2-4.666-3.63-6.619-.238-.904-.286-1.762-.143-2.523.144-.763.382-1.43.812-2.048.908-1.286 2.484-2.095 4.203-2.095 1.72 0 3.296.761 4.203 2.095.43.619.669 1.285.812 2.047.096.762.048 1.62-.143 2.524-.478 1.953-1.672 4.143-3.63 6.572 1.242 1.38 2.293 2.285 3.391 2.904.812.429 1.529.667 2.293.762.812.096 1.576 0 2.292-.285z" fill="#fff"/></svg>