<svg width="96" height="32" fill="none" xmlns="http://www.w3.org/2000/svg"><path d="M23.627 11.126H12.435v3.3h7.959c-.398 4.65-4.278 6.7-7.909 6.7-4.676 0-8.754-3.7-8.754-8.85 0-5.05 3.88-8.95 8.754-8.95 3.78 0 5.969 2.4 5.969 2.4l2.288-2.4s-2.985-3.3-8.406-3.3C5.422-.024.099 5.826.099 12.176c0 6.2 5.024 12.25 12.436 12.25 6.516 0 11.29-4.45 11.29-11.1 0-1.4-.198-2.2-.198-2.2z" fill="#fff"/><path fill-rule="evenodd" clip-rule="evenodd" d="M24.87 16.476c0-4.2 3.283-7.8 7.86-7.8 3.78 0 7.859 2.7 7.908 7.9 0 4.6-3.481 7.85-7.809 7.85-4.775 0-7.959-3.65-7.959-7.95zm12.287.1c0-2.9-2.14-4.75-4.378-4.75-2.537 0-4.476 2-4.427 4.7 0 2.8 1.94 4.8 4.427 4.8 2.288 0 4.377-1.85 4.377-4.75zm4.824-.1c0-4.2 3.283-7.8 7.86-7.8 3.78 0 7.858 2.7 7.908 7.9 0 4.6-3.482 7.85-7.81 7.85-4.774 0-7.958-3.65-7.958-7.95zm12.286.1c0-2.9-2.139-4.75-4.377-4.75-2.537 0-4.477 2-4.427 4.7 0 2.8 1.94 4.8 4.427 4.8 2.288 0 4.377-1.85 4.377-4.75zm4.825 0c0-4.15 3.283-7.85 7.511-7.85 1.84 0 3.233.7 4.129 1.8v-1.35h3.282v14.15c0 5.55-3.183 8.2-7.361 8.2-3.83 0-5.97-2.35-7.014-4.6l3.035-1.25c.447 1 1.641 2.8 4.029 2.8 2.487 0 4.128-1.65 4.128-4.35v-1.55c-.945 1.05-2.089 1.9-4.327 1.9-3.582 0-7.412-3.2-7.412-7.9zm11.988.05c0-3-2.14-4.8-4.178-4.8-2.19 0-4.328 1.75-4.378 4.85 0 2.85 2.09 4.7 4.328 4.7 2.139 0 4.228-1.65 4.228-4.75zm10.346-.1c0-4.7 3.332-7.85 7.312-7.85 3.084 0 5.422 2.1 6.466 4.5l.547 1.3-10.495 4.4c.647 1.2 1.641 2.4 3.83 2.4 1.94 0 3.134-1.05 3.83-2.15l2.736 1.85c-1.194 1.6-3.283 3.45-6.566 3.45-3.93 0-7.66-2.95-7.66-7.9zm10.346-3.1c-.497-.95-1.492-1.7-2.935-1.7-2.238 0-4.427 2.35-4.029 4.65l6.964-2.95z" fill="#fff"/><path d="M76.452 23.976h3.432V.776h-3.432v23.2z" fill="#fff"/></svg>