<svg width="96" height="26" fill="none" xmlns="http://www.w3.org/2000/svg"><path fill-rule="evenodd" clip-rule="evenodd" d="M10.76 24.35c-.553.056-1.114.114-1.688.184l-4.608-13.33v13.898c-1.44.142-2.736.33-4.128.567V.19h3.84l5.232 14.466V.189h4.08v23.826c-.902.148-1.803.24-2.728.335zM24.292 9.5a119.19 119.19 0 012.588-.045v3.97c-1.776 0-3.888 0-5.424.095v5.91c.748-.046 1.5-.096 2.257-.146 1.622-.107 3.258-.216 4.895-.28v3.829l-11.184.85V.19h11.184v3.97h-7.152v5.39c.81 0 1.835-.026 2.835-.05zm15.116-5.293h4.176s0-4.018.048-4.018H31.2v4.018h4.176V22.55c1.296-.047 2.688-.047 4.032-.047V4.207zM50.16 9.265h5.52v3.971h-5.52v9.03h-3.984V.188h11.28V4.16H50.16v5.105zm18.058 9.692a112.27 112.27 0 00-4.186-.19V.19H60v22.313c3.696.094 7.296.283 10.896.52v-3.924c-.886-.037-1.78-.089-2.678-.14zm7.448 4.436a56.33 56.33 0 012.622.196V.19h-3.984v23.116c.449.033.904.06 1.362.088zm15.15-11.102L95.952.189h-4.464l-2.832 6.666-2.64-6.666h-4.32L86.4 12.15l-5.184 11.63c.576.075 1.152.135 1.728.196.864.09 1.728.181 2.592.323l2.976-6.76 2.88 7.375c.538.082 1.07.171 1.6.26.984.163 1.962.326 2.96.449L90.816 12.29z" fill="#fff"/></svg>