<svg width="110" height="32" fill="none" xmlns="http://www.w3.org/2000/svg"><path d="M19.701 3.2c-.437-1.435-1.97-2.207-3.393-1.766-1.422.442-2.189 1.987-1.75 3.421l7.004 21.738c.493 1.324 1.916 2.097 3.284 1.71 1.423-.441 2.298-1.93 1.86-3.365 0-.055-7.005-21.738-7.005-21.738zM8.866 6.786c-.438-1.434-1.97-2.207-3.393-1.765-1.423.441-2.19 1.986-1.752 3.42l7.005 21.738c.493 1.324 1.916 2.097 3.284 1.71 1.423-.44 2.298-1.93 1.86-3.365 0-.055-7.004-21.738-7.004-21.738z" fill="#fff"/><path d="M28.567 21.241c1.423-.441 2.19-1.986 1.751-3.42-.437-1.435-1.97-2.207-3.393-1.766L5.308 23.062c-1.313.497-2.08 1.931-1.696 3.31.438 1.435 1.915 2.318 3.338 1.876.11 0 21.617-7.007 21.617-7.007z" fill="#fff"/><path d="M9.796 27.366a179.933 179.933 0 005.144-1.71 183.86 183.86 0 00-1.696-5.187l-5.145 1.71 1.697 5.187zm10.891-3.586c1.97-.663 3.776-1.215 5.144-1.711a183.86 183.86 0 00-1.697-5.186l-5.144 1.71 1.697 5.186zm4.323-13.518c1.423-.441 2.189-1.986 1.751-3.42-.438-1.435-1.97-2.208-3.393-1.766L1.806 12.138c-1.313.496-2.08 1.93-1.697 3.31.438 1.49 1.916 2.373 3.339 1.876.054 0 21.562-7.062 21.562-7.062z" fill="#fff"/><path d="M6.293 16.386a180.335 180.335 0 005.145-1.71c-.657-1.986-1.204-3.807-1.697-5.186L4.597 11.2l1.696 5.186zm10.837-3.531c1.97-.662 3.775-1.214 5.144-1.71-.657-1.986-1.204-3.807-1.697-5.186l-5.144 1.71 1.696 5.186zm33.273-3.917c.93.441 1.04.717.274 2.152-.767 1.49-.93 1.544-1.916 1.158-1.204-.496-2.681-.882-3.667-.882-1.587 0-2.626.551-2.626 1.434 0 2.869 9.139 1.324 9.139 7.503 0 3.09-2.627 5.131-6.567 5.131-2.08 0-4.652-.717-6.403-1.6-.876-.44-.93-.717-.164-2.206.656-1.27.875-1.435 1.806-1.049 1.532.662 3.393 1.159 4.706 1.159 1.478 0 2.408-.607 2.408-1.49 0-2.814-9.303-1.49-9.303-7.448 0-3.145 2.626-5.297 6.512-5.297 1.86.166 4.214.718 5.801 1.435zm7.388-7.283v22.952c0 .33-.383.717-.876.717h-2.407c-.548 0-.876-.386-.876-.717V1.655c0-1.158.328-1.214 2.08-1.214 1.97-.055 2.079.11 2.079 1.214z" fill="#fff"/><path fill-rule="evenodd" clip-rule="evenodd" d="M74.756 24.386V14.51c0-4.303-2.9-6.841-7.497-6.841-2.08 0-4.378.662-6.02 1.765-.876.552-.876.828 0 2.207.93 1.38 1.094 1.435 1.97.938 1.094-.662 2.463-1.103 3.612-1.103 2.408 0 3.83 1.103 3.83 2.924v1.159c-1.148-.497-2.571-.773-4.104-.773-4.104 0-6.786 2.207-6.786 5.517 0 3.09 2.408 5.187 5.965 5.187 1.861 0 3.722-.773 4.98-2.207l-.054 1.048c-.055.552.328.938.875.938h2.354c.492 0 .875-.331.875-.883zM66.22 22.18c-1.478 0-2.463-.772-2.463-1.93 0-1.435 1.478-2.539 3.667-2.539 1.04 0 2.244.166 3.174.552v1.545c-.93 1.49-2.572 2.372-4.378 2.372z" fill="#fff"/><path d="M91.01 8.993c.876.497.876.773-.055 2.262-.875 1.38-1.04 1.49-2.025.993-.711-.386-1.915-.717-2.845-.717-3.01 0-4.98 1.986-4.98 5.02 0 3.146 1.97 5.242 4.98 5.242 1.04 0 2.353-.386 3.174-.883.875-.496 1.04-.496 1.97.883.82 1.27.82 1.545.055 2.097-1.314.938-3.448 1.655-5.309 1.655-5.527 0-9.249-3.586-9.249-8.938s3.722-8.883 9.304-8.883c1.751-.055 3.721.497 4.98 1.27zm18.114 14.124c.712.883.438 1.214-1.313 1.821-1.751.662-2.025.607-2.627-.22l-4.98-6.677-2.244 2.152v4.359c0 .33-.383.717-.875.717h-2.408c-.548 0-.876-.386-.876-.717V1.655c0-1.158.328-1.214 2.08-1.214 2.024 0 2.08.166 2.08 1.214v13.02l6.785-6.565c.766-.717 1.149-.662 2.518.221 1.477.938 1.587 1.214.875 1.931l-5.035 4.966 6.02 7.89z" fill="#fff"/></svg>