<svg width="96" height="21" fill="none" xmlns="http://www.w3.org/2000/svg"><path d="M15.045.733v11.28c0 3.761-1.624 5.324-5.445 5.324-3.82 0-5.445-1.563-5.445-5.323V.244H.478C.143.244 0 .391 0 .733V12.16c0 6.3 3.916 8.498 9.6 8.498 5.684 0 9.6-2.198 9.6-8.498V.244h-3.678c-.286 0-.477.147-.477.489zm53.349 2.783c.287 0 .43-.097.525-.342L69.97.488c.048-.146 0-.244-.143-.244H55.02c-1.385 0-1.91.44-1.91 1.416v17.484c0 .83.382 1.172 1.48 1.172h13.803c.287 0 .43-.097.525-.342l1.051-2.686c.048-.146 0-.244-.143-.244H57.17V13.48c0-1.22.669-1.807 2.436-1.807h5.492c.287 0 .43-.098.526-.342l1.003-2.588c.048-.147 0-.244-.143-.244h-9.362V3.516h11.272z" fill="#fff"/><path fill-rule="evenodd" clip-rule="evenodd" d="M44.609 5.323c0 1.905-.669 3.516-2.293 4.396 2.197.634 3.2 2.637 3.153 5.03 0 4.004-2.77 5.567-6.64 5.567H28.562c-1.098 0-1.48-.342-1.48-1.172V1.66c0-.976.525-1.416 1.91-1.416h8.406c3.678 0 7.212.635 7.212 5.08zm-13.42-1.856h6.495c2.149 0 2.77.83 2.77 2.589 0 1.71-.621 2.588-2.77 2.588h-6.496V3.467zm7.259 13.626h-7.26V13.43c0-1.22.669-1.807 2.436-1.807h4.824c2.292 0 2.961.928 2.961 2.735 0 1.856-.669 2.735-2.961 2.735zm52.824-4.835l4.394 7.716c.095.098.095.342-.24.342h-3.725c-.275 0-.374-.135-.508-.32a6.033 6.033 0 00-.017-.022l-3.964-7.325h-3.63c-1.767 0-2.436.586-2.436 1.807v5.86h-3.582c-.334 0-.477-.146-.477-.488V1.66c0-.976.525-1.416 1.91-1.416h8.406c4.872 0 7.833 1.319 7.833 6.202 0 3.76-1.767 5.226-3.964 5.812zM81.146 9.572h6.83c2.58 0 3.105-1.026 3.105-3.077 0-2.002-.574-3.028-3.105-3.028h-6.83v6.105z" fill="#fff"/></svg>